ply
format ascii 1.0
element vertex 100
property float x
property float y
property float z
property float u
property float v
property float nx
property float ny
property float nz
element face 162
property list uchar int vertex_indices
end_header
4103.93 12.1059 0 -0.5 0 0 0 1
4211.88 10.7656 0 113.167 0 0 0 1
4320.34 9.419 0 226.833 0 0 0 1
4429.34 8.06571 0 340.5 0 0 0 1
4538.87 6.70584 0 454.167 0 0 0 1
4648.93 5.33944 0 567.833 0 0 0 1
4759.53 3.96624 0 681.5 0 0 0 1
4870.68 2.5863 0 795.167 0 0 0 1
4982.36 1.1997 0 908.833 0 0 0 1
5094.61 -0.193853 0 1022.5 0 0 0 1
4105.9 97.3867 0 -0.5 85.3333 0 0 1
4213.59 96.2554 0 113.167 85.3333 0 0 1
4321.79 95.1186 0 226.833 85.3333 0 0 1
4430.53 93.9763 0 340.5 85.3333 0 0 1
4539.79 92.8284 0 454.167 85.3333 0 0 1
4649.58 91.675 0 567.833 85.3333 0 0 1
4759.91 90.5159 0 681.5 85.3333 0 0 1
4870.78 89.3512 0 795.167 85.3333 0 0 1
4982.18 88.1808 0 908.833 85.3333 0 0 1
5094.14 87.0045 0 1022.5 85.3333 0 0 1
4107.86 182.252 0 -0.5 170.667 0 0 1
4215.29 181.327 0 113.167 170.667 0 0 1
4323.23 180.398 0 226.833 170.667 0 0 1
4431.7 179.465 0 340.5 170.667 0 0 1
4540.7 178.527 0 454.167 170.667 0 0 1
4650.22 177.584 0 567.833 170.667 0 0 1
4760.28 176.637 0 681.5 170.667 0 0 1
4870.87 175.686 0 795.167 170.667 0 0 1
4982 174.729 0 908.833 170.667 0 0 1
5093.68 173.768 0 1022.5 170.667 0 0 1
4109.81 266.703 0 -0.5 256 0 0 1
4216.99 265.983 0 113.167 256 0 0 1
4324.67 265.26 0 226.833 256 0 0 1
4432.88 264.533 0 340.5 256 0 0 1
4541.61 263.803 0 454.167 256 0 0 1
4650.86 263.07 0 567.833 256 0 0 1
4760.65 262.333 0 681.5 256 0 0 1
4870.97 261.592 0 795.167 256 0 0 1
4981.82 260.847 0 908.833 256 0 0 1
5093.23 260.099 0 1022.5 256 0 0 1
4111.76 350.743 0 -0.5 341.333 0 0 1
4218.67 350.227 0 113.167 341.333 0 0 1
4326.1 349.707 0 226.833 341.333 0 0 1
4434.04 349.186 0 340.5 341.333 0 0 1
4542.51 348.661 0 454.167 341.333 0 0 1
4651.49 348.135 0 567.833 341.333 0 0 1
4761.01 347.605 0 681.5 341.333 0 0 1
4871.06 347.073 0 795.167 341.333 0 0 1
4981.64 346.539 0 908.833 341.333 0 0 1
5092.77 346.002 0 1022.5 341.333 0 0 1
4113.69 434.378 0 -0.5 426.667 0 0 1
4220.35 434.062 0 113.167 426.667 0 0 1
4327.52 433.745 0 226.833 426.667 0 0 1
4435.2 433.426 0 340.5 426.667 0 0 1
4543.41 433.105 0 454.167 426.667 0 0 1
4652.13 432.783 0 567.833 426.667 0 0 1
4761.38 432.46 0 681.5 426.667 0 0 1
4871.16 432.135 0 795.167 426.667 0 0 1
4981.46 431.808 0 908.833 426.667 0 0 1
5092.32 431.48 0 1022.5 426.667 0 0 1
4115.61 517.607 0 -0.5 512 0 0 1
4222.02 517.49 0 113.167 512 0 0 1
4328.93 517.372 0 226.833 512 0 0 1
4436.36 517.255 0 340.5 512 0 0 1
4544.3 517.136 0 454.167 512 0 0 1
4652.76 517.017 0 567.833 512 0 0 1
4761.74 516.897 0 681.5 512 0 0 1
4871.25 516.777 0 795.167 512 0 0 1
4981.29 516.656 0 908.833 512 0 0 1
5091.86 516.535 0 1022.5 512 0 0 1
4117.53 600.434 0 -0.5 597.333 0 0 1
4223.68 600.514 0 113.167 597.333 0 0 1
4330.34 600.595 0 226.833 597.333 0 0 1
4437.51 600.676 0 340.5 597.333 0 0 1
4545.19 600.758 0 454.167 597.333 0 0 1
4653.38 600.839 0 567.833 597.333 0 0 1
4762.1 600.921 0 681.5 597.333 0 0 1
4871.35 601.004 0 795.167 597.333 0 0 1
4981.11 601.087 0 908.833 597.333 0 0 1
5091.42 601.17 0 1022.5 597.333 0 0 1
4119.43 682.864 0 -0.5 682.667 0 0 1
4225.34 683.14 0 113.167 682.667 0 0 1
4331.74 683.416 0 226.833 682.667 0 0 1
4438.65 683.694 0 340.5 682.667 0 0 1
4546.08 683.974 0 454.167 682.667 0 0 1
4654.01 684.255 0 567.833 682.667 0 0 1
4762.46 684.537 0 681.5 682.667 0 0 1
4871.44 684.82 0 795.167 682.667 0 0 1
4980.94 685.105 0 908.833 682.667 0 0 1
5090.97 685.391 0 1022.5 682.667 0 0 1
4121.33 764.898 0 -0.5 768 0 0 1
4226.98 765.367 0 113.167 768 0 0 1
4333.13 765.837 0 226.833 768 0 0 1
4439.79 766.311 0 340.5 768 0 0 1
4546.96 766.786 0 454.167 768 0 0 1
4654.63 767.264 0 567.833 768 0 0 1
4762.82 767.744 0 681.5 768 0 0 1
4871.53 768.226 0 795.167 768 0 0 1
4980.76 768.71 0 908.833 768 0 0 1
5090.52 769.197 0 1022.5 768 0 0 1
3 0 1 10
3 1 11 10
3 1 2 11
3 2 12 11
3 2 3 12
3 3 13 12
3 3 4 13
3 4 14 13
3 4 5 14
3 5 15 14
3 5 6 15
3 6 16 15
3 6 7 16
3 7 17 16
3 7 8 17
3 8 18 17
3 8 9 18
3 9 19 18
3 10 11 20
3 11 21 20
3 11 12 21
3 12 22 21
3 12 13 22
3 13 23 22
3 13 14 23
3 14 24 23
3 14 15 24
3 15 25 24
3 15 16 25
3 16 26 25
3 16 17 26
3 17 27 26
3 17 18 27
3 18 28 27
3 18 19 28
3 19 29 28
3 20 21 30
3 21 31 30
3 21 22 31
3 22 32 31
3 22 23 32
3 23 33 32
3 23 24 33
3 24 34 33
3 24 25 34
3 25 35 34
3 25 26 35
3 26 36 35
3 26 27 36
3 27 37 36
3 27 28 37
3 28 38 37
3 28 29 38
3 29 39 38
3 30 31 40
3 31 41 40
3 31 32 41
3 32 42 41
3 32 33 42
3 33 43 42
3 33 34 43
3 34 44 43
3 34 35 44
3 35 45 44
3 35 36 45
3 36 46 45
3 36 37 46
3 37 47 46
3 37 38 47
3 38 48 47
3 38 39 48
3 39 49 48
3 40 41 50
3 41 51 50
3 41 42 51
3 42 52 51
3 42 43 52
3 43 53 52
3 43 44 53
3 44 54 53
3 44 45 54
3 45 55 54
3 45 46 55
3 46 56 55
3 46 47 56
3 47 57 56
3 47 48 57
3 48 58 57
3 48 49 58
3 49 59 58
3 50 51 60
3 51 61 60
3 51 52 61
3 52 62 61
3 52 53 62
3 53 63 62
3 53 54 63
3 54 64 63
3 54 55 64
3 55 65 64
3 55 56 65
3 56 66 65
3 56 57 66
3 57 67 66
3 57 58 67
3 58 68 67
3 58 59 68
3 59 69 68
3 60 61 70
3 61 71 70
3 61 62 71
3 62 72 71
3 62 63 72
3 63 73 72
3 63 64 73
3 64 74 73
3 64 65 74
3 65 75 74
3 65 66 75
3 66 76 75
3 66 67 76
3 67 77 76
3 67 68 77
3 68 78 77
3 68 69 78
3 69 79 78
3 70 71 80
3 71 81 80
3 71 72 81
3 72 82 81
3 72 73 82
3 73 83 82
3 73 74 83
3 74 84 83
3 74 75 84
3 75 85 84
3 75 76 85
3 76 86 85
3 76 77 86
3 77 87 86
3 77 78 87
3 78 88 87
3 78 79 88
3 79 89 88
3 80 81 90
3 81 91 90
3 81 82 91
3 82 92 91
3 82 83 92
3 83 93 92
3 83 84 93
3 84 94 93
3 84 85 94
3 85 95 94
3 85 86 95
3 86 96 95
3 86 87 96
3 87 97 96
3 87 88 97
3 88 98 97
3 88 89 98
3 89 99 98
