ply
format ascii 1.0
element vertex 100
property float x
property float y
property float z
property float u
property float v
property float nx
property float ny
property float nz
element face 162
property list uchar int vertex_indices
end_header
5056.96 -9.43614 0 -0.5 0 0 0 1
5180.62 -6.83988 0 113.167 0 0 0 1
5302.63 -4.27805 0 226.833 0 0 0 1
5423.06 -1.74951 0 340.5 0 0 0 1
5541.92 0.74616 0 454.167 0 0 0 1
5659.25 3.2094 0 567.833 0 0 0 1
5775.06 5.64119 0 681.5 0 0 0 1
5889.42 8.04202 0 795.167 0 0 0 1
6002.31 10.4122 0 908.833 0 0 0 1
6113.77 12.7528 0 1022.5 0 0 0 1
5061.45 82.4338 0 -0.5 85.3333 0 0 1
5184.55 84.4126 0 113.167 85.3333 0 0 1
5306.04 86.3652 0 226.833 85.3333 0 0 1
5425.93 88.2927 0 340.5 85.3333 0 0 1
5544.29 90.1951 0 454.167 85.3333 0 0 1
5661.11 92.0728 0 567.833 85.3333 0 0 1
5776.45 93.9269 0 681.5 85.3333 0 0 1
5890.32 95.7573 0 795.167 85.3333 0 0 1
6002.75 97.5645 0 908.833 85.3333 0 0 1
6113.76 99.3491 0 1022.5 85.3333 0 0 1
5065.91 173.524 0 -0.5 170.667 0 0 1
5188.46 174.896 0 113.167 170.667 0 0 1
5309.41 176.25 0 226.833 170.667 0 0 1
5428.8 177.586 0 340.5 170.667 0 0 1
5546.63 178.904 0 454.167 170.667 0 0 1
5662.96 180.206 0 567.833 170.667 0 0 1
5777.81 181.492 0 681.5 170.667 0 0 1
5891.22 182.761 0 795.167 170.667 0 0 1
6003.18 184.014 0 908.833 170.667 0 0 1
6113.75 185.252 0 1022.5 170.667 0 0 1
5070.33 263.844 0 -0.5 256 0 0 1
5192.33 264.618 0 113.167 256 0 0 1
5312.75 265.383 0 226.833 256 0 0 1
5431.61 266.137 0 340.5 256 0 0 1
5548.96 266.882 0 454.167 256 0 0 1
5664.78 267.618 0 567.833 256 0 0 1
5779.17 268.344 0 681.5 256 0 0 1
5892.1 269.061 0 795.167 256 0 0 1
6003.61 269.769 0 908.833 256 0 0 1
6113.75 270.468 0 1022.5 256 0 0 1
5074.71 353.402 0 -0.5 341.333 0 0 1
5196.17 353.59 0 113.167 341.333 0 0 1
5316.05 353.775 0 226.833 341.333 0 0 1
5434.42 353.958 0 340.5 341.333 0 0 1
5551.26 354.138 0 454.167 341.333 0 0 1
5666.6 354.317 0 567.833 341.333 0 0 1
5780.51 354.493 0 681.5 341.333 0 0 1
5892.97 354.666 0 795.167 341.333 0 0 1
6004.04 354.838 0 908.833 341.333 0 0 1
6113.73 355.008 0 1022.5 341.333 0 0 1
5079.05 442.212 0 -0.5 426.667 0 0 1
5199.97 441.821 0 113.167 426.667 0 0 1
5319.35 441.437 0 226.833 426.667 0 0 1
5437.21 441.057 0 340.5 426.667 0 0 1
5553.54 440.682 0 454.167 426.667 0 0 1
5668.41 440.313 0 567.833 426.667 0 0 1
5781.84 439.947 0 681.5 426.667 0 0 1
5893.86 439.586 0 795.167 426.667 0 0 1
6004.46 439.23 0 908.833 426.667 0 0 1
6113.72 438.878 0 1022.5 426.667 0 0 1
5083.36 530.277 0 -0.5 512 0 0 1
5203.75 529.321 0 113.167 512 0 0 1
5322.62 528.375 0 226.833 512 0 0 1
5439.95 527.443 0 340.5 512 0 0 1
5555.81 526.522 0 454.167 512 0 0 1
5670.2 525.612 0 567.833 512 0 0 1
5783.17 524.714 0 681.5 512 0 0 1
5894.72 523.827 0 795.167 512 0 0 1
6004.88 522.951 0 908.833 512 0 0 1
6113.71 522.086 0 1022.5 512 0 0 1
5087.62 617.612 0 -0.5 597.333 0 0 1
5207.51 616.096 0 113.167 597.333 0 0 1
5325.84 614.6 0 226.833 597.333 0 0 1
5442.69 613.123 0 340.5 597.333 0 0 1
5558.06 611.664 0 454.167 597.333 0 0 1
5671.97 610.224 0 567.833 597.333 0 0 1
5784.48 608.802 0 681.5 597.333 0 0 1
5895.58 607.397 0 795.167 597.333 0 0 1
6005.3 606.01 0 908.833 597.333 0 0 1
6113.69 604.64 0 1022.5 597.333 0 0 1
5091.86 704.224 0 -0.5 682.667 0 0 1
5211.22 702.159 0 113.167 682.667 0 0 1
5329.06 700.12 0 226.833 682.667 0 0 1
5445.41 698.109 0 340.5 682.667 0 0 1
5560.29 696.121 0 454.167 682.667 0 0 1
5673.74 694.158 0 567.833 682.667 0 0 1
5785.78 692.22 0 681.5 682.667 0 0 1
5896.43 690.306 0 795.167 682.667 0 0 1
6005.72 688.416 0 908.833 682.667 0 0 1
6113.69 686.548 0 1022.5 682.667 0 0 1
5096.06 790.121 0 -0.5 768 0 0 1
5214.91 787.516 0 113.167 768 0 0 1
5332.23 784.944 0 226.833 768 0 0 1
5448.09 782.406 0 340.5 768 0 0 1
5562.5 779.898 0 454.167 768 0 0 1
5675.47 777.422 0 567.833 768 0 0 1
5787.07 774.976 0 681.5 768 0 0 1
5897.27 772.561 0 795.167 768 0 0 1
6006.14 770.175 0 908.833 768 0 0 1
6113.66 767.818 0 1022.5 768 0 0 1
3 0 1 10
3 1 11 10
3 1 2 11
3 2 12 11
3 2 3 12
3 3 13 12
3 3 4 13
3 4 14 13
3 4 5 14
3 5 15 14
3 5 6 15
3 6 16 15
3 6 7 16
3 7 17 16
3 7 8 17
3 8 18 17
3 8 9 18
3 9 19 18
3 10 11 20
3 11 21 20
3 11 12 21
3 12 22 21
3 12 13 22
3 13 23 22
3 13 14 23
3 14 24 23
3 14 15 24
3 15 25 24
3 15 16 25
3 16 26 25
3 16 17 26
3 17 27 26
3 17 18 27
3 18 28 27
3 18 19 28
3 19 29 28
3 20 21 30
3 21 31 30
3 21 22 31
3 22 32 31
3 22 23 32
3 23 33 32
3 23 24 33
3 24 34 33
3 24 25 34
3 25 35 34
3 25 26 35
3 26 36 35
3 26 27 36
3 27 37 36
3 27 28 37
3 28 38 37
3 28 29 38
3 29 39 38
3 30 31 40
3 31 41 40
3 31 32 41
3 32 42 41
3 32 33 42
3 33 43 42
3 33 34 43
3 34 44 43
3 34 35 44
3 35 45 44
3 35 36 45
3 36 46 45
3 36 37 46
3 37 47 46
3 37 38 47
3 38 48 47
3 38 39 48
3 39 49 48
3 40 41 50
3 41 51 50
3 41 42 51
3 42 52 51
3 42 43 52
3 43 53 52
3 43 44 53
3 44 54 53
3 44 45 54
3 45 55 54
3 45 46 55
3 46 56 55
3 46 47 56
3 47 57 56
3 47 48 57
3 48 58 57
3 48 49 58
3 49 59 58
3 50 51 60
3 51 61 60
3 51 52 61
3 52 62 61
3 52 53 62
3 53 63 62
3 53 54 63
3 54 64 63
3 54 55 64
3 55 65 64
3 55 56 65
3 56 66 65
3 56 57 66
3 57 67 66
3 57 58 67
3 58 68 67
3 58 59 68
3 59 69 68
3 60 61 70
3 61 71 70
3 61 62 71
3 62 72 71
3 62 63 72
3 63 73 72
3 63 64 73
3 64 74 73
3 64 65 74
3 65 75 74
3 65 66 75
3 66 76 75
3 66 67 76
3 67 77 76
3 67 68 77
3 68 78 77
3 68 69 78
3 69 79 78
3 70 71 80
3 71 81 80
3 71 72 81
3 72 82 81
3 72 73 82
3 73 83 82
3 73 74 83
3 74 84 83
3 74 75 84
3 75 85 84
3 75 76 85
3 76 86 85
3 76 77 86
3 77 87 86
3 77 78 87
3 78 88 87
3 78 79 88
3 79 89 88
3 80 81 90
3 81 91 90
3 81 82 91
3 82 92 91
3 82 83 92
3 83 93 92
3 83 84 93
3 84 94 93
3 84 85 94
3 85 95 94
3 85 86 95
3 86 96 95
3 86 87 96
3 87 97 96
3 87 88 97
3 88 98 97
3 88 89 98
3 89 99 98
