ply
format ascii 1.0
element vertex 100
property float x
property float y
property float z
property float u
property float v
property float nx
property float ny
property float nz
element face 162
property list uchar int vertex_indices
end_header
7.41474 6.2019 0 -0.5 0 0 0 1
117.701 5.76898 0 113.167 0 0 0 1
227.932 5.33627 0 226.833 0 0 0 1
338.11 4.90376 0 340.5 0 0 0 1
448.232 4.47148 0 454.167 0 0 0 1
558.299 4.03941 0 567.833 0 0 0 1
668.311 3.60756 0 681.5 0 0 0 1
778.27 3.17592 0 795.167 0 0 0 1
888.172 2.7445 0 908.833 0 0 0 1
998.024 2.31327 0 1022.5 0 0 0 1
7.77626 90.4189 0 -0.5 85.3333 0 0 1
118.229 89.9642 0 113.167 85.3333 0 0 1
228.626 89.5099 0 226.833 85.3333 0 0 1
338.969 89.0557 0 340.5 85.3333 0 0 1
449.257 88.6018 0 454.167 85.3333 0 0 1
559.489 88.1481 0 567.833 85.3333 0 0 1
669.667 87.6946 0 681.5 85.3333 0 0 1
779.79 87.2414 0 795.167 85.3333 0 0 1
889.857 86.7883 0 908.833 85.3333 0 0 1
999.874 86.3355 0 1022.5 85.3333 0 0 1
8.13887 174.89 0 -0.5 170.667 0 0 1
118.758 174.414 0 113.167 170.667 0 0 1
229.321 173.938 0 226.833 170.667 0 0 1
339.831 173.462 0 340.5 170.667 0 0 1
450.285 172.986 0 454.167 170.667 0 0 1
560.682 172.511 0 567.833 170.667 0 0 1
671.026 172.035 0 681.5 170.667 0 0 1
781.315 171.56 0 795.167 170.667 0 0 1
891.548 171.086 0 908.833 170.667 0 0 1
1001.73 170.611 0 1022.5 170.667 0 0 1
8.50257 259.617 0 -0.5 256 0 0 1
119.289 259.118 0 113.167 256 0 0 1
230.019 258.62 0 226.833 256 0 0 1
340.695 258.122 0 340.5 256 0 0 1
451.316 257.625 0 454.167 256 0 0 1
561.88 257.127 0 567.833 256 0 0 1
672.39 256.63 0 681.5 256 0 0 1
782.845 256.133 0 795.167 256 0 0 1
893.243 255.637 0 908.833 256 0 0 1
1003.59 255.14 0 1022.5 256 0 0 1
8.86738 344.599 0 -0.5 341.333 0 0 1
119.821 344.079 0 113.167 341.333 0 0 1
230.719 343.559 0 226.833 341.333 0 0 1
341.562 343.039 0 340.5 341.333 0 0 1
452.35 342.519 0 454.167 341.333 0 0 1
563.081 342 0 567.833 341.333 0 0 1
673.757 341.481 0 681.5 341.333 0 0 1
784.379 340.962 0 795.167 341.333 0 0 1
894.944 340.443 0 908.833 341.333 0 0 1
1005.46 339.925 0 1022.5 341.333 0 0 1
9.23329 429.84 0 -0.5 426.667 0 0 1
120.355 429.298 0 113.167 426.667 0 0 1
231.42 428.756 0 226.833 426.667 0 0 1
342.432 428.213 0 340.5 426.667 0 0 1
453.387 427.672 0 454.167 426.667 0 0 1
564.285 427.13 0 567.833 426.667 0 0 1
675.129 426.589 0 681.5 426.667 0 0 1
785.918 426.048 0 795.167 426.667 0 0 1
896.649 425.507 0 908.833 426.667 0 0 1
1007.33 424.967 0 1022.5 426.667 0 0 1
9.60031 515.34 0 -0.5 512 0 0 1
120.891 514.775 0 113.167 512 0 0 1
232.124 514.21 0 226.833 512 0 0 1
343.304 513.646 0 340.5 512 0 0 1
454.427 513.082 0 454.167 512 0 0 1
565.493 512.518 0 567.833 512 0 0 1
676.505 511.954 0 681.5 512 0 0 1
787.461 511.391 0 795.167 512 0 0 1
898.36 510.828 0 908.833 512 0 0 1
1009.21 510.265 0 1022.5 512 0 0 1
9.96845 601.099 0 -0.5 597.333 0 0 1
121.428 600.511 0 113.167 597.333 0 0 1
232.831 599.924 0 226.833 597.333 0 0 1
344.179 599.337 0 340.5 597.333 0 0 1
455.471 598.751 0 454.167 597.333 0 0 1
566.705 598.165 0 567.833 597.333 0 0 1
677.885 597.579 0 681.5 597.333 0 0 1
789.009 596.993 0 795.167 597.333 0 0 1
900.076 596.408 0 908.833 597.333 0 0 1
1011.09 595.823 0 1022.5 597.333 0 0 1
10.3377 687.12 0 -0.5 682.667 0 0 1
121.967 686.51 0 113.167 682.667 0 0 1
233.539 685.9 0 226.833 682.667 0 0 1
345.057 685.291 0 340.5 682.667 0 0 1
456.517 684.682 0 454.167 682.667 0 0 1
567.921 684.073 0 567.833 682.667 0 0 1
679.269 683.465 0 681.5 682.667 0 0 1
790.562 682.856 0 795.167 682.667 0 0 1
901.797 682.249 0 908.833 682.667 0 0 1
1012.98 681.641 0 1022.5 682.667 0 0 1
10.7081 773.403 0 -0.5 768 0 0 1
122.507 772.77 0 113.167 768 0 0 1
234.249 772.138 0 226.833 768 0 0 1
345.937 771.505 0 340.5 768 0 0 1
457.567 770.874 0 454.167 768 0 0 1
569.14 770.242 0 567.833 768 0 0 1
680.658 769.611 0 681.5 768 0 0 1
792.12 768.98 0 795.167 768 0 0 1
903.524 768.35 0 908.833 768 0 0 1
1014.88 767.72 0 1022.5 768 0 0 1
3 0 1 10
3 1 11 10
3 1 2 11
3 2 12 11
3 2 3 12
3 3 13 12
3 3 4 13
3 4 14 13
3 4 5 14
3 5 15 14
3 5 6 15
3 6 16 15
3 6 7 16
3 7 17 16
3 7 8 17
3 8 18 17
3 8 9 18
3 9 19 18
3 10 11 20
3 11 21 20
3 11 12 21
3 12 22 21
3 12 13 22
3 13 23 22
3 13 14 23
3 14 24 23
3 14 15 24
3 15 25 24
3 15 16 25
3 16 26 25
3 16 17 26
3 17 27 26
3 17 18 27
3 18 28 27
3 18 19 28
3 19 29 28
3 20 21 30
3 21 31 30
3 21 22 31
3 22 32 31
3 22 23 32
3 23 33 32
3 23 24 33
3 24 34 33
3 24 25 34
3 25 35 34
3 25 26 35
3 26 36 35
3 26 27 36
3 27 37 36
3 27 28 37
3 28 38 37
3 28 29 38
3 29 39 38
3 30 31 40
3 31 41 40
3 31 32 41
3 32 42 41
3 32 33 42
3 33 43 42
3 33 34 43
3 34 44 43
3 34 35 44
3 35 45 44
3 35 36 45
3 36 46 45
3 36 37 46
3 37 47 46
3 37 38 47
3 38 48 47
3 38 39 48
3 39 49 48
3 40 41 50
3 41 51 50
3 41 42 51
3 42 52 51
3 42 43 52
3 43 53 52
3 43 44 53
3 44 54 53
3 44 45 54
3 45 55 54
3 45 46 55
3 46 56 55
3 46 47 56
3 47 57 56
3 47 48 57
3 48 58 57
3 48 49 58
3 49 59 58
3 50 51 60
3 51 61 60
3 51 52 61
3 52 62 61
3 52 53 62
3 53 63 62
3 53 54 63
3 54 64 63
3 54 55 64
3 55 65 64
3 55 56 65
3 56 66 65
3 56 57 66
3 57 67 66
3 57 58 67
3 58 68 67
3 58 59 68
3 59 69 68
3 60 61 70
3 61 71 70
3 61 62 71
3 62 72 71
3 62 63 72
3 63 73 72
3 63 64 73
3 64 74 73
3 64 65 74
3 65 75 74
3 65 66 75
3 66 76 75
3 66 67 76
3 67 77 76
3 67 68 77
3 68 78 77
3 68 69 78
3 69 79 78
3 70 71 80
3 71 81 80
3 71 72 81
3 72 82 81
3 72 73 82
3 73 83 82
3 73 74 83
3 74 84 83
3 74 75 84
3 75 85 84
3 75 76 85
3 76 86 85
3 76 77 86
3 77 87 86
3 77 78 87
3 78 88 87
3 78 79 88
3 79 89 88
3 80 81 90
3 81 91 90
3 81 82 91
3 82 92 91
3 82 83 92
3 83 93 92
3 83 84 93
3 84 94 93
3 84 85 94
3 85 95 94
3 85 86 95
3 86 96 95
3 86 87 96
3 87 97 96
3 87 88 97
3 88 98 97
3 88 89 98
3 89 99 98
