ply
format ascii 1.0
element vertex 100
property float x
property float y
property float z
property float u
property float v
property float nx
property float ny
property float nz
element face 162
property list uchar int vertex_indices
end_header
3080.15 -0.015205 0 -0.5 0 0 0 1
3191.84 0.476752 0 113.167 0 0 0 1
3281.77 -5.01412 0 226.833 0 0 0 1
3414.47 1.45728 0 340.5 0 0 0 1
3525.41 1.94591 0 454.167 0 0 0 1
3636.09 2.43338 0 567.833 0 0 0 1
3746.51 2.91971 0 681.5 0 0 0 1
3856.7 3.40504 0 795.167 0 0 0 1
3966.63 3.88922 0 908.833 0 0 0 1
4076.33 4.37237 0 1022.5 0 0 0 1
3077.99 84.1654 0 -0.5 85.3333 0 0 1
3190.06 84.5631 0 113.167 85.3333 0 0 1
3302.18 83.3811 0 226.833 85.3333 0 0 1
3413.75 81.7078 0 340.5 85.3333 0 0 1
3524.71 85.7508 0 454.167 85.3333 0 0 1
3635.75 86.1449 0 567.833 85.3333 0 0 1
3746.53 86.5381 0 681.5 85.3333 0 0 1
3857.08 86.9304 0 795.167 85.3333 0 0 1
3967.37 87.3219 0 908.833 85.3333 0 0 1
4077.41 87.7124 0 1022.5 85.3333 0 0 1
3075.82 168.897 0 -0.5 170.667 0 0 1
3188.15 169.597 0 113.167 170.667 0 0 1
3300.32 169.898 0 226.833 170.667 0 0 1
3412.24 169.802 0 340.5 170.667 0 0 1
3524.01 169.706 0 454.167 170.667 0 0 1
3635.41 170.402 0 567.833 170.667 0 0 1
3746.55 170.7 0 681.5 170.667 0 0 1
3857.46 170.999 0 795.167 170.667 0 0 1
3968.1 171.296 0 908.833 170.667 0 0 1
4078.51 171.593 0 1022.5 170.667 0 0 1
3073.64 254.185 0 -0.5 256 0 0 1
3186.34 254.791 0 113.167 256 0 0 1
3298.65 256.496 0 226.833 256 0 0 1
3411.17 255.2 0 340.5 256 0 0 1
3523.3 255.004 0 454.167 256 0 0 1
3635.07 255.208 0 567.833 256 0 0 1
3746.57 255.411 0 681.5 256 0 0 1
3857.84 255.614 0 795.167 256 0 0 1
3968.84 255.816 0 908.833 256 0 0 1
4079.6 256.018 0 1022.5 256 0 0 1
3071.45 340.035 0 -0.5 341.333 0 0 1
3184.56 343.066 0 113.167 341.333 0 0 1
3297.48 343.17 0 226.833 341.333 0 0 1
3410.61 338.747 0 340.5 341.333 0 0 1
3523.1 338.454 0 454.167 341.333 0 0 1
3634.72 340.57 0 567.833 341.333 0 0 1
3746.59 340.676 0 681.5 341.333 0 0 1
3858.22 340.782 0 795.167 341.333 0 0 1
3969.59 340.888 0 908.833 341.333 0 0 1
4080.71 340.993 0 1022.5 341.333 0 0 1
3069.23 426.453 0 -0.5 426.667 0 0 1
3182.83 428.998 0 113.167 426.667 0 0 1
3296.13 429.004 0 226.833 426.667 0 0 1
3409.51 425.566 0 340.5 426.667 0 0 1
3522.39 424.463 0 454.167 426.667 0 0 1
3634.37 426.493 0 567.833 426.667 0 0 1
3746.61 426.502 0 681.5 426.667 0 0 1
3858.61 426.51 0 795.167 426.667 0 0 1
3970.34 426.518 0 908.833 426.667 0 0 1
4081.82 426.526 0 1022.5 426.667 0 0 1
3067.49 514.159 0 -0.5 512 0 0 1
3181.8 515.495 0 113.167 512 0 0 1
3295.46 515.401 0 226.833 512 0 0 1
3409.21 512.35 0 340.5 512 0 0 1
3522.16 511.75 0 454.167 512 0 0 1
3634.02 512.983 0 567.833 512 0 0 1
3746.63 512.891 0 681.5 512 0 0 1
3858.99 512.8 0 795.167 512 0 0 1
3971.09 512.709 0 908.833 512 0 0 1
4082.94 512.618 0 1022.5 512 0 0 1
3065.25 601.732 0 -0.5 597.333 0 0 1
3180.39 601.021 0 113.167 597.333 0 0 1
3294.42 600.827 0 226.833 597.333 0 0 1
3408.23 598.479 0 340.5 597.333 0 0 1
3521.44 598.903 0 454.167 597.333 0 0 1
3633.67 600.044 0 567.833 597.333 0 0 1
3746.65 599.852 0 681.5 597.333 0 0 1
3859.39 599.66 0 795.167 597.333 0 0 1
3971.85 599.469 0 908.833 597.333 0 0 1
4084.07 599.278 0 1022.5 597.333 0 0 1
3063.67 687.402 0 -0.5 682.667 0 0 1
3178.57 686.485 0 113.167 682.667 0 0 1
3292.98 686.191 0 226.833 682.667 0 0 1
3408.17 683.52 0 340.5 682.667 0 0 1
3521.73 683.849 0 454.167 682.667 0 0 1
3632.63 683.566 0 567.833 682.667 0 0 1
3745.77 683.174 0 681.5 682.667 0 0 1
3857.56 681.038 0 795.167 682.667 0 0 1
3970.38 680.753 0 908.833 682.667 0 0 1
4084.15 681.797 0 1022.5 682.667 0 0 1
3060.3 775.407 0 -0.5 768 0 0 1
3175.89 770.11 0 113.167 768 0 0 1
3290.66 769.717 0 226.833 768 0 0 1
3405.17 769.325 0 340.5 768 0 0 1
3519.42 768.934 0 454.167 768 0 0 1
3632.88 770.619 0 567.833 768 0 0 1
3746.59 770.228 0 681.5 768 0 0 1
3859.14 767.875 0 795.167 768 0 0 1
3972.33 767.487 0 908.833 768 0 0 1
4085.29 769.577 0 1022.5 768 0 0 1
3 0 1 10
3 1 11 10
3 1 2 11
3 2 12 11
3 2 3 12
3 3 13 12
3 3 4 13
3 4 14 13
3 4 5 14
3 5 15 14
3 5 6 15
3 6 16 15
3 6 7 16
3 7 17 16
3 7 8 17
3 8 18 17
3 8 9 18
3 9 19 18
3 10 11 20
3 11 21 20
3 11 12 21
3 12 22 21
3 12 13 22
3 13 23 22
3 13 14 23
3 14 24 23
3 14 15 24
3 15 25 24
3 15 16 25
3 16 26 25
3 16 17 26
3 17 27 26
3 17 18 27
3 18 28 27
3 18 19 28
3 19 29 28
3 20 21 30
3 21 31 30
3 21 22 31
3 22 32 31
3 22 23 32
3 23 33 32
3 23 24 33
3 24 34 33
3 24 25 34
3 25 35 34
3 25 26 35
3 26 36 35
3 26 27 36
3 27 37 36
3 27 28 37
3 28 38 37
3 28 29 38
3 29 39 38
3 30 31 40
3 31 41 40
3 31 32 41
3 32 42 41
3 32 33 42
3 33 43 42
3 33 34 43
3 34 44 43
3 34 35 44
3 35 45 44
3 35 36 45
3 36 46 45
3 36 37 46
3 37 47 46
3 37 38 47
3 38 48 47
3 38 39 48
3 39 49 48
3 40 41 50
3 41 51 50
3 41 42 51
3 42 52 51
3 42 43 52
3 43 53 52
3 43 44 53
3 44 54 53
3 44 45 54
3 45 55 54
3 45 46 55
3 46 56 55
3 46 47 56
3 47 57 56
3 47 48 57
3 48 58 57
3 48 49 58
3 49 59 58
3 50 51 60
3 51 61 60
3 51 52 61
3 52 62 61
3 52 53 62
3 53 63 62
3 53 54 63
3 54 64 63
3 54 55 64
3 55 65 64
3 55 56 65
3 56 66 65
3 56 57 66
3 57 67 66
3 57 58 67
3 58 68 67
3 58 59 68
3 59 69 68
3 60 61 70
3 61 71 70
3 61 62 71
3 62 72 71
3 62 63 72
3 63 73 72
3 63 64 73
3 64 74 73
3 64 65 74
3 65 75 74
3 65 66 75
3 66 76 75
3 66 67 76
3 67 77 76
3 67 68 77
3 68 78 77
3 68 69 78
3 69 79 78
3 70 71 80
3 71 81 80
3 71 72 81
3 72 82 81
3 72 73 82
3 73 83 82
3 73 74 83
3 74 84 83
3 74 75 84
3 75 85 84
3 75 76 85
3 76 86 85
3 76 77 86
3 77 87 86
3 77 78 87
3 78 88 87
3 78 79 88
3 79 89 88
3 80 81 90
3 81 91 90
3 81 82 91
3 82 92 91
3 82 83 92
3 83 93 92
3 83 84 93
3 84 94 93
3 84 85 94
3 85 95 94
3 85 86 95
3 86 96 95
3 86 87 96
3 87 97 96
3 87 88 97
3 88 98 97
3 88 89 98
3 89 99 98
