ply
format ascii 1.0
element vertex 100
property float x
property float y
property float z
property float u
property float v
property float nx
property float ny
property float nz
element face 162
property list uchar int vertex_indices
end_header
2037.57 -13.0294 0 -0.5 0 0 0 1
2152.46 -11.6956 0 113.167 0 0 0 1
2267.08 -10.3651 0 226.833 0 0 0 1
2381.42 -9.0377 0 340.5 0 0 0 1
2495.49 -7.71349 0 454.167 0 0 0 1
2609.28 -6.39258 0 567.833 0 0 0 1
2722.8 -5.07472 0 681.5 0 0 0 1
2836.06 -3.76002 0 795.167 0 0 0 1
2949.02 -2.4487 0 908.833 0 0 0 1
3061.73 -1.14028 0 1022.5 0 0 0 1
2038.82 76.0559 0 -0.5 85.3333 0 0 1
2153.31 77.2779 0 113.167 85.3333 0 0 1
2267.52 78.4969 0 226.833 85.3333 0 0 1
2381.46 79.7131 0 340.5 85.3333 0 0 1
2495.13 80.9263 0 454.167 85.3333 0 0 1
2608.52 82.1365 0 567.833 85.3333 0 0 1
2721.65 83.3439 0 681.5 85.3333 0 0 1
2834.5 84.5485 0 795.167 85.3333 0 0 1
2947.07 85.75 0 908.833 85.3333 0 0 1
3059.39 86.9488 0 1022.5 85.3333 0 0 1
2040.07 164.514 0 -0.5 170.667 0 0 1
2154.15 165.626 0 113.167 170.667 0 0 1
2267.96 166.735 0 226.833 170.667 0 0 1
2381.5 167.841 0 340.5 170.667 0 0 1
2494.77 168.945 0 454.167 170.667 0 0 1
2607.76 170.046 0 567.833 170.667 0 0 1
2720.49 171.145 0 681.5 170.667 0 0 1
2832.96 172.241 0 795.167 170.667 0 0 1
2945.14 173.334 0 908.833 170.667 0 0 1
3057.07 174.424 0 1022.5 170.667 0 0 1
2041.3 252.351 0 -0.5 256 0 0 1
2154.99 253.354 0 113.167 256 0 0 1
2268.39 254.354 0 226.833 256 0 0 1
2381.54 255.352 0 340.5 256 0 0 1
2494.41 256.348 0 454.167 256 0 0 1
2607.01 257.342 0 567.833 256 0 0 1
2719.35 258.333 0 681.5 256 0 0 1
2831.43 259.321 0 795.167 256 0 0 1
2943.21 260.308 0 908.833 256 0 0 1
3054.76 261.292 0 1022.5 256 0 0 1
2042.53 339.573 0 -0.5 341.333 0 0 1
2155.82 340.469 0 113.167 341.333 0 0 1
2268.83 341.362 0 226.833 341.333 0 0 1
2381.58 342.254 0 340.5 341.333 0 0 1
2494.06 343.143 0 454.167 341.333 0 0 1
2606.27 344.03 0 567.833 341.333 0 0 1
2718.22 344.915 0 681.5 341.333 0 0 1
2829.9 345.798 0 795.167 341.333 0 0 1
2941.31 346.679 0 908.833 341.333 0 0 1
3052.47 347.558 0 1022.5 341.333 0 0 1
2043.75 426.188 0 -0.5 426.667 0 0 1
2156.64 426.978 0 113.167 426.667 0 0 1
2269.26 427.766 0 226.833 426.667 0 0 1
2381.61 428.552 0 340.5 426.667 0 0 1
2493.71 429.337 0 454.167 426.667 0 0 1
2605.53 430.119 0 567.833 426.667 0 0 1
2717.09 430.9 0 681.5 426.667 0 0 1
2828.39 431.678 0 795.167 426.667 0 0 1
2939.41 432.455 0 908.833 426.667 0 0 1
3050.19 433.23 0 1022.5 426.667 0 0 1
2044.96 512.201 0 -0.5 512 0 0 1
2157.46 512.886 0 113.167 512 0 0 1
2269.68 513.57 0 226.833 512 0 0 1
2381.65 514.252 0 340.5 512 0 0 1
2493.36 514.933 0 454.167 512 0 0 1
2604.79 515.612 0 567.833 512 0 0 1
2715.97 516.29 0 681.5 512 0 0 1
2826.89 516.966 0 795.167 512 0 0 1
2937.53 517.64 0 908.833 512 0 0 1
3047.93 518.313 0 1022.5 512 0 0 1
2046.17 597.618 0 -0.5 597.333 0 0 1
2158.27 598.201 0 113.167 597.333 0 0 1
2270.11 598.782 0 226.833 597.333 0 0 1
2381.69 599.362 0 340.5 597.333 0 0 1
2493.01 599.94 0 454.167 597.333 0 0 1
2604.06 600.517 0 567.833 597.333 0 0 1
2714.86 601.093 0 681.5 597.333 0 0 1
2825.4 601.668 0 795.167 597.333 0 0 1
2935.66 602.241 0 908.833 597.333 0 0 1
3045.69 602.812 0 1022.5 597.333 0 0 1
2047.36 682.447 0 -0.5 682.667 0 0 1
2159.08 682.928 0 113.167 682.667 0 0 1
2270.53 683.408 0 226.833 682.667 0 0 1
2381.73 683.887 0 340.5 682.667 0 0 1
2492.67 684.364 0 454.167 682.667 0 0 1
2603.33 684.841 0 567.833 682.667 0 0 1
2713.76 685.316 0 681.5 682.667 0 0 1
2823.92 685.791 0 795.167 682.667 0 0 1
2933.81 686.264 0 908.833 682.667 0 0 1
3043.46 686.736 0 1022.5 682.667 0 0 1
2048.55 766.692 0 -0.5 768 0 0 1
2159.88 767.073 0 113.167 768 0 0 1
2270.95 767.453 0 226.833 768 0 0 1
2381.76 767.832 0 340.5 768 0 0 1
2492.32 768.21 0 454.167 768 0 0 1
2602.61 768.587 0 567.833 768 0 0 1
2712.66 768.964 0 681.5 768 0 0 1
2822.45 769.339 0 795.167 768 0 0 1
2931.96 769.714 0 908.833 768 0 0 1
3041.24 770.088 0 1022.5 768 0 0 1
3 0 1 10
3 1 11 10
3 1 2 11
3 2 12 11
3 2 3 12
3 3 13 12
3 3 4 13
3 4 14 13
3 4 5 14
3 5 15 14
3 5 6 15
3 6 16 15
3 6 7 16
3 7 17 16
3 7 8 17
3 8 18 17
3 8 9 18
3 9 19 18
3 10 11 20
3 11 21 20
3 11 12 21
3 12 22 21
3 12 13 22
3 13 23 22
3 13 14 23
3 14 24 23
3 14 15 24
3 15 25 24
3 15 16 25
3 16 26 25
3 16 17 26
3 17 27 26
3 17 18 27
3 18 28 27
3 18 19 28
3 19 29 28
3 20 21 30
3 21 31 30
3 21 22 31
3 22 32 31
3 22 23 32
3 23 33 32
3 23 24 33
3 24 34 33
3 24 25 34
3 25 35 34
3 25 26 35
3 26 36 35
3 26 27 36
3 27 37 36
3 27 28 37
3 28 38 37
3 28 29 38
3 29 39 38
3 30 31 40
3 31 41 40
3 31 32 41
3 32 42 41
3 32 33 42
3 33 43 42
3 33 34 43
3 34 44 43
3 34 35 44
3 35 45 44
3 35 36 45
3 36 46 45
3 36 37 46
3 37 47 46
3 37 38 47
3 38 48 47
3 38 39 48
3 39 49 48
3 40 41 50
3 41 51 50
3 41 42 51
3 42 52 51
3 42 43 52
3 43 53 52
3 43 44 53
3 44 54 53
3 44 45 54
3 45 55 54
3 45 46 55
3 46 56 55
3 46 47 56
3 47 57 56
3 47 48 57
3 48 58 57
3 48 49 58
3 49 59 58
3 50 51 60
3 51 61 60
3 51 52 61
3 52 62 61
3 52 53 62
3 53 63 62
3 53 54 63
3 54 64 63
3 54 55 64
3 55 65 64
3 55 56 65
3 56 66 65
3 56 57 66
3 57 67 66
3 57 58 67
3 58 68 67
3 58 59 68
3 59 69 68
3 60 61 70
3 61 71 70
3 61 62 71
3 62 72 71
3 62 63 72
3 63 73 72
3 63 64 73
3 64 74 73
3 64 65 74
3 65 75 74
3 65 66 75
3 66 76 75
3 66 67 76
3 67 77 76
3 67 68 77
3 68 78 77
3 68 69 78
3 69 79 78
3 70 71 80
3 71 81 80
3 71 72 81
3 72 82 81
3 72 73 82
3 73 83 82
3 73 74 83
3 74 84 83
3 74 75 84
3 75 85 84
3 75 76 85
3 76 86 85
3 76 77 86
3 77 87 86
3 77 78 87
3 78 88 87
3 78 79 88
3 79 89 88
3 80 81 90
3 81 91 90
3 81 82 91
3 82 92 91
3 82 83 92
3 83 93 92
3 83 84 93
3 84 94 93
3 84 85 94
3 85 95 94
3 85 86 95
3 86 96 95
3 86 87 96
3 87 97 96
3 87 88 97
3 88 98 97
3 88 89 98
3 89 99 98
