ply
format ascii 1.0
element vertex 100
property float x
property float y
property float z
property float u
property float v
property float nx
property float ny
property float nz
element face 162
property list uchar int vertex_indices
end_header
1024 0 0 0 0 0 0 1
1137.78 0 0 113.778 0 0 0 1
1251.56 0 0 227.556 0 0 0 1
1365.33 0 0 341.333 0 0 0 1
1479.11 0 0 455.111 0 0 0 1
1592.89 0 0 568.889 0 0 0 1
1706.67 0 0 682.667 0 0 0 1
1820.44 0 0 796.444 0 0 0 1
1934.22 0 0 910.222 0 0 0 1
2048 0 0 1024 0 0 0 1
1024 85.3333 0 0 85.3333 0 0 1
1137.78 85.3333 0 113.778 85.3333 0 0 1
1251.56 85.3333 0 227.556 85.3333 0 0 1
1365.33 85.3333 0 341.333 85.3333 0 0 1
1479.11 85.3333 0 455.111 85.3333 0 0 1
1592.89 85.3333 0 568.889 85.3333 0 0 1
1706.67 85.3333 0 682.667 85.3333 0 0 1
1820.44 85.3333 0 796.444 85.3333 0 0 1
1934.22 85.3333 0 910.222 85.3333 0 0 1
2048 85.3333 0 1024 85.3333 0 0 1
1024 170.667 0 0 170.667 0 0 1
1137.78 170.667 0 113.778 170.667 0 0 1
1251.56 170.667 0 227.556 170.667 0 0 1
1365.33 170.667 0 341.333 170.667 0 0 1
1479.11 170.667 0 455.111 170.667 0 0 1
1592.89 170.667 0 568.889 170.667 0 0 1
1706.67 170.667 0 682.667 170.667 0 0 1
1820.44 170.667 0 796.444 170.667 0 0 1
1934.22 170.667 0 910.222 170.667 0 0 1
2048 170.667 0 1024 170.667 0 0 1
1024 256 0 0 256 0 0 1
1137.78 256 0 113.778 256 0 0 1
1251.56 256 0 227.556 256 0 0 1
1365.33 256 0 341.333 256 0 0 1
1479.11 256 0 455.111 256 0 0 1
1592.89 256 0 568.889 256 0 0 1
1706.67 256 0 682.667 256 0 0 1
1820.44 256 0 796.444 256 0 0 1
1934.22 256 0 910.222 256 0 0 1
2048 256 0 1024 256 0 0 1
1024 341.333 0 0 341.333 0 0 1
1137.78 341.333 0 113.778 341.333 0 0 1
1251.56 341.333 0 227.556 341.333 0 0 1
1365.33 341.333 0 341.333 341.333 0 0 1
1479.11 341.333 0 455.111 341.333 0 0 1
1592.89 341.333 0 568.889 341.333 0 0 1
1706.67 341.333 0 682.667 341.333 0 0 1
1820.44 341.333 0 796.444 341.333 0 0 1
1934.22 341.333 0 910.222 341.333 0 0 1
2048 341.333 0 1024 341.333 0 0 1
1024 426.667 0 0 426.667 0 0 1
1137.78 426.667 0 113.778 426.667 0 0 1
1251.56 426.667 0 227.556 426.667 0 0 1
1365.33 426.667 0 341.333 426.667 0 0 1
1479.11 426.667 0 455.111 426.667 0 0 1
1592.89 426.667 0 568.889 426.667 0 0 1
1706.67 426.667 0 682.667 426.667 0 0 1
1820.44 426.667 0 796.444 426.667 0 0 1
1934.22 426.667 0 910.222 426.667 0 0 1
2048 426.667 0 1024 426.667 0 0 1
1024 512 0 0 512 0 0 1
1137.78 512 0 113.778 512 0 0 1
1251.56 512 0 227.556 512 0 0 1
1365.33 512 0 341.333 512 0 0 1
1479.11 512 0 455.111 512 0 0 1
1592.89 512 0 568.889 512 0 0 1
1706.67 512 0 682.667 512 0 0 1
1820.44 512 0 796.444 512 0 0 1
1934.22 512 0 910.222 512 0 0 1
2048 512 0 1024 512 0 0 1
1024 597.333 0 0 597.333 0 0 1
1137.78 597.333 0 113.778 597.333 0 0 1
1251.56 597.333 0 227.556 597.333 0 0 1
1365.33 597.333 0 341.333 597.333 0 0 1
1479.11 597.333 0 455.111 597.333 0 0 1
1592.89 597.333 0 568.889 597.333 0 0 1
1706.67 597.333 0 682.667 597.333 0 0 1
1820.44 597.333 0 796.444 597.333 0 0 1
1934.22 597.333 0 910.222 597.333 0 0 1
2048 597.333 0 1024 597.333 0 0 1
1024 682.667 0 0 682.667 0 0 1
1137.78 682.667 0 113.778 682.667 0 0 1
1251.56 682.667 0 227.556 682.667 0 0 1
1365.33 682.667 0 341.333 682.667 0 0 1
1479.11 682.667 0 455.111 682.667 0 0 1
1592.89 682.667 0 568.889 682.667 0 0 1
1706.67 682.667 0 682.667 682.667 0 0 1
1820.44 682.667 0 796.444 682.667 0 0 1
1934.22 682.667 0 910.222 682.667 0 0 1
2048 682.667 0 1024 682.667 0 0 1
1024 768 0 0 768 0 0 1
1137.78 768 0 113.778 768 0 0 1
1251.56 768 0 227.556 768 0 0 1
1365.33 768 0 341.333 768 0 0 1
1479.11 768 0 455.111 768 0 0 1
1592.89 768 0 568.889 768 0 0 1
1706.67 768 0 682.667 768 0 0 1
1820.44 768 0 796.444 768 0 0 1
1934.22 768 0 910.222 768 0 0 1
2048 768 0 1024 768 0 0 1
3 0 1 10
3 1 11 10
3 1 2 11
3 2 12 11
3 2 3 12
3 3 13 12
3 3 4 13
3 4 14 13
3 4 5 14
3 5 15 14
3 5 6 15
3 6 16 15
3 6 7 16
3 7 17 16
3 7 8 17
3 8 18 17
3 8 9 18
3 9 19 18
3 10 11 20
3 11 21 20
3 11 12 21
3 12 22 21
3 12 13 22
3 13 23 22
3 13 14 23
3 14 24 23
3 14 15 24
3 15 25 24
3 15 16 25
3 16 26 25
3 16 17 26
3 17 27 26
3 17 18 27
3 18 28 27
3 18 19 28
3 19 29 28
3 20 21 30
3 21 31 30
3 21 22 31
3 22 32 31
3 22 23 32
3 23 33 32
3 23 24 33
3 24 34 33
3 24 25 34
3 25 35 34
3 25 26 35
3 26 36 35
3 26 27 36
3 27 37 36
3 27 28 37
3 28 38 37
3 28 29 38
3 29 39 38
3 30 31 40
3 31 41 40
3 31 32 41
3 32 42 41
3 32 33 42
3 33 43 42
3 33 34 43
3 34 44 43
3 34 35 44
3 35 45 44
3 35 36 45
3 36 46 45
3 36 37 46
3 37 47 46
3 37 38 47
3 38 48 47
3 38 39 48
3 39 49 48
3 40 41 50
3 41 51 50
3 41 42 51
3 42 52 51
3 42 43 52
3 43 53 52
3 43 44 53
3 44 54 53
3 44 45 54
3 45 55 54
3 45 46 55
3 46 56 55
3 46 47 56
3 47 57 56
3 47 48 57
3 48 58 57
3 48 49 58
3 49 59 58
3 50 51 60
3 51 61 60
3 51 52 61
3 52 62 61
3 52 53 62
3 53 63 62
3 53 54 63
3 54 64 63
3 54 55 64
3 55 65 64
3 55 56 65
3 56 66 65
3 56 57 66
3 57 67 66
3 57 58 67
3 58 68 67
3 58 59 68
3 59 69 68
3 60 61 70
3 61 71 70
3 61 62 71
3 62 72 71
3 62 63 72
3 63 73 72
3 63 64 73
3 64 74 73
3 64 65 74
3 65 75 74
3 65 66 75
3 66 76 75
3 66 67 76
3 67 77 76
3 67 68 77
3 68 78 77
3 68 69 78
3 69 79 78
3 70 71 80
3 71 81 80
3 71 72 81
3 72 82 81
3 72 73 82
3 73 83 82
3 73 74 83
3 74 84 83
3 74 75 84
3 75 85 84
3 75 76 85
3 76 86 85
3 76 77 86
3 77 87 86
3 77 78 87
3 78 88 87
3 78 79 88
3 79 89 88
3 80 81 90
3 81 91 90
3 81 82 91
3 82 92 91
3 82 83 92
3 83 93 92
3 83 84 93
3 84 94 93
3 84 85 94
3 85 95 94
3 85 86 95
3 86 96 95
3 86 87 96
3 87 97 96
3 87 88 97
3 88 98 97
3 88 89 98
3 89 99 98
