ply
format ascii 1.0
element vertex 100
property float x
property float y
property float z
property float u
property float v
property float nx
property float ny
property float nz
element face 162
property list uchar int vertex_indices
end_header
1029.52 2.00751 0 -0.5 0 0 0 1
1138.03 0.29521 0 113.167 0 0 0 1
1247.2 -1.42766 0 226.833 0 0 0 1
1357.05 -3.1612 0 340.5 0 0 0 1
1467.58 -4.9055 0 454.167 0 0 0 1
1578.8 -6.66067 0 567.833 0 0 0 1
1690.72 -8.42681 0 681.5 0 0 0 1
1803.34 -10.204 0 795.167 0 0 0 1
1916.66 -11.9924 0 908.833 0 0 0 1
2030.7 -13.7921 0 1022.5 0 0 0 1
1030 87.4767 0 -0.5 85.3333 0 0 1
1138.44 86.0283 0 113.167 85.3333 0 0 1
1247.55 84.5709 0 226.833 85.3333 0 0 1
1357.33 83.1045 0 340.5 85.3333 0 0 1
1467.8 81.629 0 454.167 85.3333 0 0 1
1578.95 80.1444 0 567.833 85.3333 0 0 1
1690.8 78.6504 0 681.5 85.3333 0 0 1
1803.34 77.1471 0 795.167 85.3333 0 0 1
1916.6 75.6343 0 908.833 85.3333 0 0 1
2030.57 74.112 0 1022.5 85.3333 0 0 1
1030.48 172.842 0 -0.5 170.667 0 0 1
1138.86 171.657 0 113.167 170.667 0 0 1
1247.9 170.464 0 226.833 170.667 0 0 1
1357.62 169.264 0 340.5 170.667 0 0 1
1468.01 168.057 0 454.167 170.667 0 0 1
1579.1 166.842 0 567.833 170.667 0 0 1
1690.88 165.619 0 681.5 170.667 0 0 1
1803.35 164.389 0 795.167 170.667 0 0 1
1916.54 163.152 0 908.833 170.667 0 0 1
2030.43 161.906 0 1022.5 170.667 0 0 1
1030.96 258.103 0 -0.5 256 0 0 1
1139.27 257.18 0 113.167 256 0 0 1
1248.25 256.252 0 226.833 256 0 0 1
1357.9 255.318 0 340.5 256 0 0 1
1468.23 254.378 0 454.167 256 0 0 1
1579.25 253.432 0 567.833 256 0 0 1
1690.95 252.481 0 681.5 256 0 0 1
1803.36 251.523 0 795.167 256 0 0 1
1916.47 250.56 0 908.833 256 0 0 1
2030.3 249.59 0 1022.5 256 0 0 1
1031.44 343.26 0 -0.5 341.333 0 0 1
1139.69 342.6 0 113.167 341.333 0 0 1
1248.6 341.935 0 226.833 341.333 0 0 1
1358.18 341.266 0 340.5 341.333 0 0 1
1468.44 340.593 0 454.167 341.333 0 0 1
1579.39 339.916 0 567.833 341.333 0 0 1
1691.03 339.234 0 681.5 341.333 0 0 1
1803.37 338.549 0 795.167 341.333 0 0 1
1916.41 337.858 0 908.833 341.333 0 0 1
2030.17 337.164 0 1022.5 341.333 0 0 1
1031.92 428.314 0 -0.5 426.667 0 0 1
1140.1 427.915 0 113.167 426.667 0 0 1
1248.95 427.513 0 226.833 426.667 0 0 1
1358.46 427.108 0 340.5 426.667 0 0 1
1468.66 426.702 0 454.167 426.667 0 0 1
1579.54 426.292 0 567.833 426.667 0 0 1
1691.11 425.88 0 681.5 426.667 0 0 1
1803.38 425.466 0 795.167 426.667 0 0 1
1916.35 425.049 0 908.833 426.667 0 0 1
2030.03 424.629 0 1022.5 426.667 0 0 1
1032.4 513.264 0 -0.5 512 0 0 1
1140.51 513.126 0 113.167 512 0 0 1
1249.29 512.986 0 226.833 512 0 0 1
1358.75 512.846 0 340.5 512 0 0 1
1468.87 512.704 0 454.167 512 0 0 1
1579.69 512.562 0 567.833 512 0 0 1
1691.19 512.419 0 681.5 512 0 0 1
1803.39 512.275 0 795.167 512 0 0 1
1916.29 512.13 0 908.833 512 0 0 1
2029.9 511.984 0 1022.5 512 0 0 1
1032.87 598.112 0 -0.5 597.333 0 0 1
1140.93 598.233 0 113.167 597.333 0 0 1
1249.64 598.355 0 226.833 597.333 0 0 1
1359.03 598.478 0 340.5 597.333 0 0 1
1469.09 598.601 0 454.167 597.333 0 0 1
1579.83 598.726 0 567.833 597.333 0 0 1
1691.27 598.851 0 681.5 597.333 0 0 1
1803.4 598.977 0 795.167 597.333 0 0 1
1916.23 599.103 0 908.833 597.333 0 0 1
2029.77 599.231 0 1022.5 597.333 0 0 1
1033.35 682.856 0 -0.5 682.667 0 0 1
1141.34 683.237 0 113.167 682.667 0 0 1
1249.99 683.62 0 226.833 682.667 0 0 1
1359.31 684.005 0 340.5 682.667 0 0 1
1469.3 684.393 0 454.167 682.667 0 0 1
1579.98 684.783 0 567.833 682.667 0 0 1
1691.35 685.175 0 681.5 682.667 0 0 1
1803.41 685.57 0 795.167 682.667 0 0 1
1916.17 685.968 0 908.833 682.667 0 0 1
2029.64 686.368 0 1022.5 682.667 0 0 1
1033.83 767.497 0 -0.5 768 0 0 1
1141.75 768.137 0 113.167 768 0 0 1
1250.33 768.78 0 226.833 768 0 0 1
1359.59 769.427 0 340.5 768 0 0 1
1469.52 770.079 0 454.167 768 0 0 1
1580.13 770.734 0 567.833 768 0 0 1
1691.42 771.393 0 681.5 768 0 0 1
1803.41 772.057 0 795.167 768 0 0 1
1916.11 772.725 0 908.833 768 0 0 1
2029.5 773.396 0 1022.5 768 0 0 1
3 0 1 10
3 1 11 10
3 1 2 11
3 2 12 11
3 2 3 12
3 3 13 12
3 3 4 13
3 4 14 13
3 4 5 14
3 5 15 14
3 5 6 15
3 6 16 15
3 6 7 16
3 7 17 16
3 7 8 17
3 8 18 17
3 8 9 18
3 9 19 18
3 10 11 20
3 11 21 20
3 11 12 21
3 12 22 21
3 12 13 22
3 13 23 22
3 13 14 23
3 14 24 23
3 14 15 24
3 15 25 24
3 15 16 25
3 16 26 25
3 16 17 26
3 17 27 26
3 17 18 27
3 18 28 27
3 18 19 28
3 19 29 28
3 20 21 30
3 21 31 30
3 21 22 31
3 22 32 31
3 22 23 32
3 23 33 32
3 23 24 33
3 24 34 33
3 24 25 34
3 25 35 34
3 25 26 35
3 26 36 35
3 26 27 36
3 27 37 36
3 27 28 37
3 28 38 37
3 28 29 38
3 29 39 38
3 30 31 40
3 31 41 40
3 31 32 41
3 32 42 41
3 32 33 42
3 33 43 42
3 33 34 43
3 34 44 43
3 34 35 44
3 35 45 44
3 35 36 45
3 36 46 45
3 36 37 46
3 37 47 46
3 37 38 47
3 38 48 47
3 38 39 48
3 39 49 48
3 40 41 50
3 41 51 50
3 41 42 51
3 42 52 51
3 42 43 52
3 43 53 52
3 43 44 53
3 44 54 53
3 44 45 54
3 45 55 54
3 45 46 55
3 46 56 55
3 46 47 56
3 47 57 56
3 47 48 57
3 48 58 57
3 48 49 58
3 49 59 58
3 50 51 60
3 51 61 60
3 51 52 61
3 52 62 61
3 52 53 62
3 53 63 62
3 53 54 63
3 54 64 63
3 54 55 64
3 55 65 64
3 55 56 65
3 56 66 65
3 56 57 66
3 57 67 66
3 57 58 67
3 58 68 67
3 58 59 68
3 59 69 68
3 60 61 70
3 61 71 70
3 61 62 71
3 62 72 71
3 62 63 72
3 63 73 72
3 63 64 73
3 64 74 73
3 64 65 74
3 65 75 74
3 65 66 75
3 66 76 75
3 66 67 76
3 67 77 76
3 67 68 77
3 68 78 77
3 68 69 78
3 69 79 78
3 70 71 80
3 71 81 80
3 71 72 81
3 72 82 81
3 72 73 82
3 73 83 82
3 73 74 83
3 74 84 83
3 74 75 84
3 75 85 84
3 75 76 85
3 76 86 85
3 76 77 86
3 77 87 86
3 77 78 87
3 78 88 87
3 78 79 88
3 79 89 88
3 80 81 90
3 81 91 90
3 81 82 91
3 82 92 91
3 82 83 92
3 83 93 92
3 83 84 93
3 84 94 93
3 84 85 94
3 85 95 94
3 85 86 95
3 86 96 95
3 86 87 96
3 87 97 96
3 87 88 97
3 88 98 97
3 88 89 98
3 89 99 98
