ply
format ascii 1.0
element vertex 100
property float x
property float y
property float z
property float u
property float v
property float nx
property float ny
property float nz
element face 162
property list uchar int vertex_indices
end_header
2073.54 22.0362 0 -0.5 0 0 0 1
2178.32 13.7267 0 113.167 0 0 0 1
2285.43 5.2327 0 226.833 0 0 0 1
2394.95 -3.4522 0 340.5 0 0 0 1
2506.95 -12.3344 0 454.167 0 0 0 1
2621.53 -21.4209 0 567.833 0 0 0 1
2738.77 -30.7185 0 681.5 0 0 0 1
2858.77 -40.2349 0 795.167 0 0 0 1
2981.62 -49.9779 0 908.833 0 0 0 1
3107.44 -59.9556 0 1022.5 0 0 0 1
2070.52 105.622 0 -0.5 85.3333 0 0 1
2175.18 98.2381 0 113.167 85.3333 0 0 1
2282.15 90.6898 0 226.833 85.3333 0 0 1
2391.53 82.9721 0 340.5 85.3333 0 0 1
2503.39 75.0791 0 454.167 85.3333 0 0 1
2617.82 67.0049 0 567.833 85.3333 0 0 1
2734.9 58.7431 0 681.5 85.3333 0 0 1
2854.74 50.2872 0 795.167 85.3333 0 0 1
2977.43 41.6301 0 908.833 85.3333 0 0 1
3103.07 32.7647 0 1022.5 85.3333 0 0 1
2067.51 189.06 0 -0.5 170.667 0 0 1
2172.03 182.598 0 113.167 170.667 0 0 1
2278.88 175.992 0 226.833 170.667 0 0 1
2388.12 169.238 0 340.5 170.667 0 0 1
2499.83 162.33 0 454.167 170.667 0 0 1
2614.11 155.265 0 567.833 170.667 0 0 1
2731.05 148.035 0 681.5 170.667 0 0 1
2850.73 140.635 0 795.167 170.667 0 0 1
2973.25 133.06 0 908.833 170.667 0 0 1
3098.72 125.302 0 1022.5 170.667 0 0 1
2064.5 272.35 0 -0.5 256 0 0 1
2168.9 266.806 0 113.167 256 0 0 1
2275.61 261.139 0 226.833 256 0 0 1
2384.71 255.345 0 340.5 256 0 0 1
2496.29 249.42 0 454.167 256 0 0 1
2610.42 243.359 0 567.833 256 0 0 1
2727.2 237.157 0 681.5 256 0 0 1
2846.72 230.81 0 795.167 256 0 0 1
2969.07 224.312 0 908.833 256 0 0 1
3094.37 217.658 0 1022.5 256 0 0 1
2061.49 355.492 0 -0.5 341.333 0 0 1
2165.76 350.863 0 113.167 341.333 0 0 1
2272.35 346.132 0 226.833 341.333 0 0 1
2381.31 341.294 0 340.5 341.333 0 0 1
2492.75 336.348 0 454.167 341.333 0 0 1
2606.73 331.287 0 567.833 341.333 0 0 1
2723.36 326.11 0 681.5 341.333 0 0 1
2842.71 320.811 0 795.167 341.333 0 0 1
2964.9 315.387 0 908.833 341.333 0 0 1
3090.02 309.832 0 1022.5 341.333 0 0 1
2058.49 438.487 0 -0.5 426.667 0 0 1
2162.64 434.77 0 113.167 426.667 0 0 1
2269.09 430.971 0 226.833 426.667 0 0 1
2377.92 427.086 0 340.5 426.667 0 0 1
2489.21 423.114 0 454.167 426.667 0 0 1
2603.05 419.052 0 567.833 426.667 0 0 1
2719.52 414.895 0 681.5 426.667 0 0 1
2838.72 410.64 0 795.167 426.667 0 0 1
2960.74 406.285 0 908.833 426.667 0 0 1
3085.69 401.826 0 1022.5 426.667 0 0 1
2055.5 521.335 0 -0.5 512 0 0 1
2159.52 518.526 0 113.167 512 0 0 1
2265.84 515.656 0 226.833 512 0 0 1
2374.53 512.722 0 340.5 512 0 0 1
2485.68 509.721 0 454.167 512 0 0 1
2599.37 506.651 0 567.833 512 0 0 1
2715.69 503.511 0 681.5 512 0 0 1
2834.73 500.297 0 795.167 512 0 0 1
2956.59 497.007 0 908.833 512 0 0 1
3081.37 493.639 0 1022.5 512 0 0 1
2052.51 604.036 0 -0.5 597.333 0 0 1
2156.41 602.133 0 113.167 597.333 0 0 1
2262.59 600.188 0 226.833 597.333 0 0 1
2371.15 598.2 0 340.5 597.333 0 0 1
2482.16 596.167 0 454.167 597.333 0 0 1
2595.71 594.088 0 567.833 597.333 0 0 1
2711.87 591.96 0 681.5 597.333 0 0 1
2830.76 589.783 0 795.167 597.333 0 0 1
2952.45 587.554 0 908.833 597.333 0 0 1
3077.05 585.272 0 1022.5 597.333 0 0 1
2049.53 686.591 0 -0.5 682.667 0 0 1
2153.3 685.591 0 113.167 682.667 0 0 1
2259.35 684.568 0 226.833 682.667 0 0 1
2367.78 683.523 0 340.5 682.667 0 0 1
2478.65 682.454 0 454.167 682.667 0 0 1
2592.05 681.36 0 567.833 682.667 0 0 1
2708.06 680.242 0 681.5 682.667 0 0 1
2826.78 679.097 0 795.167 682.667 0 0 1
2948.31 677.925 0 908.833 682.667 0 0 1
3072.75 676.726 0 1022.5 682.667 0 0 1
2046.55 769 0 -0.5 768 0 0 1
2150.19 768.899 0 113.167 768 0 0 1
2256.12 768.795 0 226.833 768 0 0 1
2364.41 768.689 0 340.5 768 0 0 1
2475.14 768.581 0 454.167 768 0 0 1
2588.39 768.47 0 567.833 768 0 0 1
2704.25 768.357 0 681.5 768 0 0 1
2822.82 768.241 0 795.167 768 0 0 1
2944.18 768.122 0 908.833 768 0 0 1
3068.45 768 0 1022.5 768 0 0 1
3 0 1 10
3 1 11 10
3 1 2 11
3 2 12 11
3 2 3 12
3 3 13 12
3 3 4 13
3 4 14 13
3 4 5 14
3 5 15 14
3 5 6 15
3 6 16 15
3 6 7 16
3 7 17 16
3 7 8 17
3 8 18 17
3 8 9 18
3 9 19 18
3 10 11 20
3 11 21 20
3 11 12 21
3 12 22 21
3 12 13 22
3 13 23 22
3 13 14 23
3 14 24 23
3 14 15 24
3 15 25 24
3 15 16 25
3 16 26 25
3 16 17 26
3 17 27 26
3 17 18 27
3 18 28 27
3 18 19 28
3 19 29 28
3 20 21 30
3 21 31 30
3 21 22 31
3 22 32 31
3 22 23 32
3 23 33 32
3 23 24 33
3 24 34 33
3 24 25 34
3 25 35 34
3 25 26 35
3 26 36 35
3 26 27 36
3 27 37 36
3 27 28 37
3 28 38 37
3 28 29 38
3 29 39 38
3 30 31 40
3 31 41 40
3 31 32 41
3 32 42 41
3 32 33 42
3 33 43 42
3 33 34 43
3 34 44 43
3 34 35 44
3 35 45 44
3 35 36 45
3 36 46 45
3 36 37 46
3 37 47 46
3 37 38 47
3 38 48 47
3 38 39 48
3 39 49 48
3 40 41 50
3 41 51 50
3 41 42 51
3 42 52 51
3 42 43 52
3 43 53 52
3 43 44 53
3 44 54 53
3 44 45 54
3 45 55 54
3 45 46 55
3 46 56 55
3 46 47 56
3 47 57 56
3 47 48 57
3 48 58 57
3 48 49 58
3 49 59 58
3 50 51 60
3 51 61 60
3 51 52 61
3 52 62 61
3 52 53 62
3 53 63 62
3 53 54 63
3 54 64 63
3 54 55 64
3 55 65 64
3 55 56 65
3 56 66 65
3 56 57 66
3 57 67 66
3 57 58 67
3 58 68 67
3 58 59 68
3 59 69 68
3 60 61 70
3 61 71 70
3 61 62 71
3 62 72 71
3 62 63 72
3 63 73 72
3 63 64 73
3 64 74 73
3 64 65 74
3 65 75 74
3 65 66 75
3 66 76 75
3 66 67 76
3 67 77 76
3 67 68 77
3 68 78 77
3 68 69 78
3 69 79 78
3 70 71 80
3 71 81 80
3 71 72 81
3 72 82 81
3 72 73 82
3 73 83 82
3 73 74 83
3 74 84 83
3 74 75 84
3 75 85 84
3 75 76 85
3 76 86 85
3 76 77 86
3 77 87 86
3 77 78 87
3 78 88 87
3 78 79 88
3 79 89 88
3 80 81 90
3 81 91 90
3 81 82 91
3 82 92 91
3 82 83 92
3 83 93 92
3 83 84 93
3 84 94 93
3 84 85 94
3 85 95 94
3 85 86 95
3 86 96 95
3 86 87 96
3 87 97 96
3 87 88 97
3 88 98 97
3 88 89 98
3 89 99 98
