ply
format ascii 1.0
element vertex 100
property float x
property float y
property float z
property float u
property float v
property float nx
property float ny
property float nz
element face 162
property list uchar int vertex_indices
end_header
1010.89 -4.83952 0 -0.5 0 0 0 1
1126.65 -4.63138 0 113.167 0 0 0 1
1242.34 -4.42336 0 226.833 0 0 0 1
1357.96 -4.21547 0 340.5 0 0 0 1
1473.54 -4.00764 0 454.167 0 0 0 1
1589.04 -3.79995 0 567.833 0 0 0 1
1704.48 -3.59242 0 681.5 0 0 0 1
1819.86 -3.38496 0 795.167 0 0 0 1
1935.17 -3.17762 0 908.833 0 0 0 1
2050.43 -2.97036 0 1022.5 0 0 0 1
1011.75 82.7188 0 -0.5 85.3333 0 0 1
1127.23 82.9028 0 113.167 85.3333 0 0 1
1242.63 83.087 0 226.833 85.3333 0 0 1
1357.97 83.2708 0 340.5 85.3333 0 0 1
1473.26 83.4546 0 454.167 85.3333 0 0 1
1588.48 83.6383 0 567.833 85.3333 0 0 1
1703.64 83.8219 0 681.5 85.3333 0 0 1
1818.74 84.0055 0 795.167 85.3333 0 0 1
1933.77 84.1889 0 908.833 85.3333 0 0 1
2048.74 84.3722 0 1022.5 85.3333 0 0 1
1012.61 169.848 0 -0.5 170.667 0 0 1
1127.8 170.009 0 113.167 170.667 0 0 1
1242.92 170.169 0 226.833 170.667 0 0 1
1357.98 170.328 0 340.5 170.667 0 0 1
1473 170.488 0 454.167 170.667 0 0 1
1587.93 170.648 0 567.833 170.667 0 0 1
1702.8 170.809 0 681.5 170.667 0 0 1
1817.62 170.968 0 795.167 170.667 0 0 1
1932.38 171.127 0 908.833 170.667 0 0 1
2047.08 171.287 0 1022.5 170.667 0 0 1
1013.47 256.551 0 -0.5 256 0 0 1
1128.38 256.688 0 113.167 256 0 0 1
1243.21 256.826 0 226.833 256 0 0 1
1357.99 256.961 0 340.5 256 0 0 1
1472.72 257.098 0 454.167 256 0 0 1
1587.38 257.234 0 567.833 256 0 0 1
1701.97 257.371 0 681.5 256 0 0 1
1816.51 257.507 0 795.167 256 0 0 1
1930.98 257.642 0 908.833 256 0 0 1
2045.41 257.78 0 1022.5 256 0 0 1
1014.32 342.832 0 -0.5 341.333 0 0 1
1128.95 342.946 0 113.167 341.333 0 0 1
1243.51 343.059 0 226.833 341.333 0 0 1
1358 343.172 0 340.5 341.333 0 0 1
1472.45 343.285 0 454.167 341.333 0 0 1
1586.84 343.398 0 567.833 341.333 0 0 1
1701.15 343.511 0 681.5 341.333 0 0 1
1815.4 343.624 0 795.167 341.333 0 0 1
1929.6 343.737 0 908.833 341.333 0 0 1
2043.74 343.85 0 1022.5 341.333 0 0 1
1015.16 428.694 0 -0.5 426.667 0 0 1
1129.51 428.783 0 113.167 426.667 0 0 1
1243.79 428.873 0 226.833 426.667 0 0 1
1358.02 428.964 0 340.5 426.667 0 0 1
1472.18 429.054 0 454.167 426.667 0 0 1
1586.3 429.145 0 567.833 426.667 0 0 1
1700.32 429.233 0 681.5 426.667 0 0 1
1814.3 429.323 0 795.167 426.667 0 0 1
1928.23 429.413 0 908.833 426.667 0 0 1
2042.09 429.504 0 1022.5 426.667 0 0 1
1016.01 514.137 0 -0.5 512 0 0 1
1130.07 514.205 0 113.167 512 0 0 1
1244.09 514.272 0 226.833 512 0 0 1
1358.03 514.339 0 340.5 512 0 0 1
1471.91 514.406 0 454.167 512 0 0 1
1585.75 514.474 0 567.833 512 0 0 1
1699.52 514.54 0 681.5 512 0 0 1
1813.2 514.608 0 795.167 512 0 0 1
1926.86 514.675 0 908.833 512 0 0 1
2040.44 514.743 0 1022.5 512 0 0 1
1016.84 599.167 0 -0.5 597.333 0 0 1
1130.63 599.213 0 113.167 597.333 0 0 1
1244.37 599.257 0 226.833 597.333 0 0 1
1358.04 599.302 0 340.5 597.333 0 0 1
1471.66 599.346 0 454.167 597.333 0 0 1
1585.21 599.391 0 567.833 597.333 0 0 1
1698.69 599.435 0 681.5 597.333 0 0 1
1812.13 599.48 0 795.167 597.333 0 0 1
1925.48 599.524 0 908.833 597.333 0 0 1
2038.8 599.569 0 1022.5 597.333 0 0 1
1017.68 683.787 0 -0.5 682.667 0 0 1
1131.19 683.811 0 113.167 682.667 0 0 1
1244.65 683.832 0 226.833 682.667 0 0 1
1358.04 683.854 0 340.5 682.667 0 0 1
1471.38 683.876 0 454.167 682.667 0 0 1
1584.66 683.899 0 567.833 682.667 0 0 1
1697.89 683.921 0 681.5 682.667 0 0 1
1811.04 683.943 0 795.167 682.667 0 0 1
1924.15 683.966 0 908.833 682.667 0 0 1
2037.18 683.987 0 1022.5 682.667 0 0 1
1018.51 768 0 -0.5 768 0 0 1
1131.76 768 0 113.167 768 0 0 1
1244.94 768 0 226.833 768 0 0 1
1358.05 768 0 340.5 768 0 0 1
1471.11 768 0 454.167 768 0 0 1
1584.12 768 0 567.833 768 0 0 1
1697.07 768 0 681.5 768 0 0 1
1809.97 768 0 795.167 768 0 0 1
1922.79 768 0 908.833 768 0 0 1
2035.56 768 0 1022.5 768 0 0 1
3 0 1 10
3 1 11 10
3 1 2 11
3 2 12 11
3 2 3 12
3 3 13 12
3 3 4 13
3 4 14 13
3 4 5 14
3 5 15 14
3 5 6 15
3 6 16 15
3 6 7 16
3 7 17 16
3 7 8 17
3 8 18 17
3 8 9 18
3 9 19 18
3 10 11 20
3 11 21 20
3 11 12 21
3 12 22 21
3 12 13 22
3 13 23 22
3 13 14 23
3 14 24 23
3 14 15 24
3 15 25 24
3 15 16 25
3 16 26 25
3 16 17 26
3 17 27 26
3 17 18 27
3 18 28 27
3 18 19 28
3 19 29 28
3 20 21 30
3 21 31 30
3 21 22 31
3 22 32 31
3 22 23 32
3 23 33 32
3 23 24 33
3 24 34 33
3 24 25 34
3 25 35 34
3 25 26 35
3 26 36 35
3 26 27 36
3 27 37 36
3 27 28 37
3 28 38 37
3 28 29 38
3 29 39 38
3 30 31 40
3 31 41 40
3 31 32 41
3 32 42 41
3 32 33 42
3 33 43 42
3 33 34 43
3 34 44 43
3 34 35 44
3 35 45 44
3 35 36 45
3 36 46 45
3 36 37 46
3 37 47 46
3 37 38 47
3 38 48 47
3 38 39 48
3 39 49 48
3 40 41 50
3 41 51 50
3 41 42 51
3 42 52 51
3 42 43 52
3 43 53 52
3 43 44 53
3 44 54 53
3 44 45 54
3 45 55 54
3 45 46 55
3 46 56 55
3 46 47 56
3 47 57 56
3 47 48 57
3 48 58 57
3 48 49 58
3 49 59 58
3 50 51 60
3 51 61 60
3 51 52 61
3 52 62 61
3 52 53 62
3 53 63 62
3 53 54 63
3 54 64 63
3 54 55 64
3 55 65 64
3 55 56 65
3 56 66 65
3 56 57 66
3 57 67 66
3 57 58 67
3 58 68 67
3 58 59 68
3 59 69 68
3 60 61 70
3 61 71 70
3 61 62 71
3 62 72 71
3 62 63 72
3 63 73 72
3 63 64 73
3 64 74 73
3 64 65 74
3 65 75 74
3 65 66 75
3 66 76 75
3 66 67 76
3 67 77 76
3 67 68 77
3 68 78 77
3 68 69 78
3 69 79 78
3 70 71 80
3 71 81 80
3 71 72 81
3 72 82 81
3 72 73 82
3 73 83 82
3 73 74 83
3 74 84 83
3 74 75 84
3 75 85 84
3 75 76 85
3 76 86 85
3 76 77 86
3 77 87 86
3 77 78 87
3 78 88 87
3 78 79 88
3 79 89 88
3 80 81 90
3 81 91 90
3 81 82 91
3 82 92 91
3 82 83 92
3 83 93 92
3 83 84 93
3 84 94 93
3 84 85 94
3 85 95 94
3 85 86 95
3 86 96 95
3 86 87 96
3 87 97 96
3 87 88 97
3 88 98 97
3 88 89 98
3 89 99 98
