ply
format ascii 1.0
element vertex 100
property float x
property float y
property float z
property float u
property float v
property float nx
property float ny
property float nz
element face 162
property list uchar int vertex_indices
end_header
5070.46 -9.01062 0 -0.5 0 0 0 1
5193.27 -6.60486 0 113.167 0 0 0 1
5315.12 -4.21786 0 226.833 0 0 0 1
5436.04 -1.849 0 340.5 0 0 0 1
5556.04 0.501734 0 454.167 0 0 0 1
5675.12 2.83433 0 567.833 0 0 0 1
5793.29 5.14939 0 681.5 0 0 0 1
5910.58 7.44695 0 795.167 0 0 0 1
6026.97 9.72698 0 908.833 0 0 0 1
6142.49 11.9901 0 1022.5 0 0 0 1
5076.32 82.1518 0 -0.5 85.3333 0 0 1
5198.27 84.1906 0 113.167 85.3333 0 0 1
5319.28 86.2136 0 226.833 85.3333 0 0 1
5439.37 88.2214 0 340.5 85.3333 0 0 1
5558.55 90.2139 0 454.167 85.3333 0 0 1
5676.82 92.191 0 567.833 85.3333 0 0 1
5794.21 94.1535 0 681.5 85.3333 0 0 1
5910.71 96.1012 0 795.167 85.3333 0 0 1
6026.33 98.0342 0 908.833 85.3333 0 0 1
6141.09 99.9528 0 1022.5 85.3333 0 0 1
5082.1 172.08 0 -0.5 170.667 0 0 1
5203.21 173.761 0 113.167 170.667 0 0 1
5323.39 175.43 0 226.833 170.667 0 0 1
5442.66 177.086 0 340.5 170.667 0 0 1
5561.03 178.729 0 454.167 170.667 0 0 1
5678.5 180.36 0 567.833 170.667 0 0 1
5795.1 181.979 0 681.5 170.667 0 0 1
5910.84 183.586 0 795.167 170.667 0 0 1
6025.69 185.181 0 908.833 170.667 0 0 1
6139.71 186.764 0 1022.5 170.667 0 0 1
5087.81 260.797 0 -0.5 256 0 0 1
5208.08 262.13 0 113.167 256 0 0 1
5327.44 263.454 0 226.833 256 0 0 1
5445.9 264.767 0 340.5 256 0 0 1
5563.48 266.071 0 454.167 256 0 0 1
5680.16 267.365 0 567.833 256 0 0 1
5795.99 268.649 0 681.5 256 0 0 1
5910.96 269.924 0 795.167 256 0 0 1
6025.07 271.189 0 908.833 256 0 0 1
6138.35 272.445 0 1022.5 256 0 0 1
5093.44 348.328 0 -0.5 341.333 0 0 1
5212.89 349.323 0 113.167 341.333 0 0 1
5331.43 350.31 0 226.833 341.333 0 0 1
5449.1 351.29 0 340.5 341.333 0 0 1
5565.89 352.262 0 454.167 341.333 0 0 1
5681.8 353.228 0 567.833 341.333 0 0 1
5796.87 354.186 0 681.5 341.333 0 0 1
5911.08 355.137 0 795.167 341.333 0 0 1
6024.45 356.081 0 908.833 341.333 0 0 1
6137 357.019 0 1022.5 341.333 0 0 1
5098.99 434.698 0 -0.5 426.667 0 0 1
5217.63 435.362 0 113.167 426.667 0 0 1
5335.38 436.022 0 226.833 426.667 0 0 1
5452.26 436.677 0 340.5 426.667 0 0 1
5568.27 437.327 0 454.167 426.667 0 0 1
5683.42 437.973 0 567.833 426.667 0 0 1
5797.73 438.613 0 681.5 426.667 0 0 1
5911.21 439.249 0 795.167 426.667 0 0 1
6023.84 439.88 0 908.833 426.667 0 0 1
6135.67 440.507 0 1022.5 426.667 0 0 1
5104.47 519.927 0 -0.5 512 0 0 1
5222.31 520.271 0 113.167 512 0 0 1
5339.27 520.611 0 226.833 512 0 0 1
5455.37 520.95 0 340.5 512 0 0 1
5570.62 521.286 0 454.167 512 0 0 1
5685.02 521.619 0 567.833 512 0 0 1
5798.59 521.95 0 681.5 512 0 0 1
5911.33 522.279 0 795.167 512 0 0 1
6023.24 522.605 0 908.833 512 0 0 1
6134.36 522.929 0 1022.5 512 0 0 1
5109.88 604.04 0 -0.5 597.333 0 0 1
5226.93 604.07 0 113.167 597.333 0 0 1
5343.11 604.1 0 226.833 597.333 0 0 1
5458.45 604.13 0 340.5 597.333 0 0 1
5572.94 604.16 0 454.167 597.333 0 0 1
5686.59 604.189 0 567.833 597.333 0 0 1
5799.43 604.219 0 681.5 597.333 0 0 1
5911.45 604.248 0 795.167 597.333 0 0 1
6022.65 604.277 0 908.833 597.333 0 0 1
6133.06 604.305 0 1022.5 597.333 0 0 1
5115.22 687.059 0 -0.5 682.667 0 0 1
5231.49 686.784 0 113.167 682.667 0 0 1
5346.91 686.511 0 226.833 682.667 0 0 1
5461.49 686.241 0 340.5 682.667 0 0 1
5575.23 685.972 0 454.167 682.667 0 0 1
5688.15 685.705 0 567.833 682.667 0 0 1
5800.26 685.44 0 681.5 682.667 0 0 1
5911.57 685.177 0 795.167 682.667 0 0 1
6022.06 684.916 0 908.833 682.667 0 0 1
6131.79 684.657 0 1022.5 682.667 0 0 1
5120.49 769.003 0 -0.5 768 0 0 1
5235.99 768.431 0 113.167 768 0 0 1
5350.65 767.863 0 226.833 768 0 0 1
5464.48 767.3 0 340.5 768 0 0 1
5577.5 766.74 0 454.167 768 0 0 1
5689.69 766.185 0 567.833 768 0 0 1
5801.08 765.633 0 681.5 768 0 0 1
5911.68 765.086 0 795.167 768 0 0 1
6021.49 764.542 0 908.833 768 0 0 1
6130.52 764.002 0 1022.5 768 0 0 1
3 0 1 10
3 1 11 10
3 1 2 11
3 2 12 11
3 2 3 12
3 3 13 12
3 3 4 13
3 4 14 13
3 4 5 14
3 5 15 14
3 5 6 15
3 6 16 15
3 6 7 16
3 7 17 16
3 7 8 17
3 8 18 17
3 8 9 18
3 9 19 18
3 10 11 20
3 11 21 20
3 11 12 21
3 12 22 21
3 12 13 22
3 13 23 22
3 13 14 23
3 14 24 23
3 14 15 24
3 15 25 24
3 15 16 25
3 16 26 25
3 16 17 26
3 17 27 26
3 17 18 27
3 18 28 27
3 18 19 28
3 19 29 28
3 20 21 30
3 21 31 30
3 21 22 31
3 22 32 31
3 22 23 32
3 23 33 32
3 23 24 33
3 24 34 33
3 24 25 34
3 25 35 34
3 25 26 35
3 26 36 35
3 26 27 36
3 27 37 36
3 27 28 37
3 28 38 37
3 28 29 38
3 29 39 38
3 30 31 40
3 31 41 40
3 31 32 41
3 32 42 41
3 32 33 42
3 33 43 42
3 33 34 43
3 34 44 43
3 34 35 44
3 35 45 44
3 35 36 45
3 36 46 45
3 36 37 46
3 37 47 46
3 37 38 47
3 38 48 47
3 38 39 48
3 39 49 48
3 40 41 50
3 41 51 50
3 41 42 51
3 42 52 51
3 42 43 52
3 43 53 52
3 43 44 53
3 44 54 53
3 44 45 54
3 45 55 54
3 45 46 55
3 46 56 55
3 46 47 56
3 47 57 56
3 47 48 57
3 48 58 57
3 48 49 58
3 49 59 58
3 50 51 60
3 51 61 60
3 51 52 61
3 52 62 61
3 52 53 62
3 53 63 62
3 53 54 63
3 54 64 63
3 54 55 64
3 55 65 64
3 55 56 65
3 56 66 65
3 56 57 66
3 57 67 66
3 57 58 67
3 58 68 67
3 58 59 68
3 59 69 68
3 60 61 70
3 61 71 70
3 61 62 71
3 62 72 71
3 62 63 72
3 63 73 72
3 63 64 73
3 64 74 73
3 64 65 74
3 65 75 74
3 65 66 75
3 66 76 75
3 66 67 76
3 67 77 76
3 67 68 77
3 68 78 77
3 68 69 78
3 69 79 78
3 70 71 80
3 71 81 80
3 71 72 81
3 72 82 81
3 72 73 82
3 73 83 82
3 73 74 83
3 74 84 83
3 74 75 84
3 75 85 84
3 75 76 85
3 76 86 85
3 76 77 86
3 77 87 86
3 77 78 87
3 78 88 87
3 78 79 88
3 79 89 88
3 80 81 90
3 81 91 90
3 81 82 91
3 82 92 91
3 82 83 92
3 83 93 92
3 83 84 93
3 84 94 93
3 84 85 94
3 85 95 94
3 85 86 95
3 86 96 95
3 86 87 96
3 87 97 96
3 87 88 97
3 88 98 97
3 88 89 98
3 89 99 98
