ply
format ascii 1.0
element vertex 100
property float x
property float y
property float z
property float u
property float v
property float nx
property float ny
property float nz
element face 162
property list uchar int vertex_indices
end_header
-0.541551 -0.054267 0 -0.5 0 0 0 1
120.633 12.0882 0 113.167 0 0 0 1
238.036 23.8528 0 226.833 0 0 0 1
351.841 35.2568 0 340.5 0 0 0 1
462.21 46.3165 0 454.167 0 0 0 1
569.297 57.0473 0 567.833 0 0 0 1
673.246 67.4637 0 681.5 0 0 0 1
774.193 77.5792 0 795.167 0 0 0 1
872.267 87.4068 0 908.833 0 0 0 1
967.587 96.9586 0 1022.5 0 0 0 1
-0.545215 80.6662 0 -0.5 85.3333 0 0 1
121.436 91.6049 0 113.167 85.3333 0 0 1
239.596 102.201 0 226.833 85.3333 0 0 1
354.111 112.47 0 340.5 85.3333 0 0 1
465.147 122.427 0 454.167 85.3333 0 0 1
572.861 132.086 0 567.833 85.3333 0 0 1
677.398 141.461 0 681.5 85.3333 0 0 1
778.899 150.563 0 795.167 85.3333 0 0 1
877.492 159.404 0 908.833 85.3333 0 0 1
973.302 167.996 0 1022.5 85.3333 0 0 1
-0.548929 162.486 0 -0.5 170.667 0 0 1
122.25 172.188 0 113.167 170.667 0 0 1
241.177 181.583 0 226.833 170.667 0 0 1
356.411 190.686 0 340.5 170.667 0 0 1
468.122 199.511 0 454.167 170.667 0 0 1
576.469 208.071 0 567.833 170.667 0 0 1
681.602 216.376 0 681.5 170.667 0 0 1
783.661 224.439 0 795.167 170.667 0 0 1
882.78 232.269 0 908.833 170.667 0 0 1
979.084 239.877 0 1022.5 170.667 0 0 1
-0.552693 245.429 0 -0.5 256 0 0 1
123.075 253.858 0 113.167 256 0 0 1
242.778 262.019 0 226.833 256 0 0 1
358.741 269.925 0 340.5 256 0 0 1
471.135 277.588 0 454.167 256 0 0 1
580.123 285.019 0 567.833 256 0 0 1
685.858 292.227 0 681.5 256 0 0 1
788.483 299.224 0 795.167 256 0 0 1
888.133 306.018 0 908.833 256 0 0 1
984.935 312.618 0 1022.5 256 0 0 1
-0.55651 329.517 0 -0.5 341.333 0 0 1
123.911 336.637 0 113.167 341.333 0 0 1
244.401 343.53 0 226.833 341.333 0 0 1
361.101 350.206 0 340.5 341.333 0 0 1
474.187 356.676 0 454.167 341.333 0 0 1
583.824 362.948 0 567.833 341.333 0 0 1
690.167 369.032 0 681.5 341.333 0 0 1
793.363 374.935 0 795.167 341.333 0 0 1
893.55 380.667 0 908.833 341.333 0 0 1
990.857 386.233 0 1022.5 341.333 0 0 1
-0.56038 414.774 0 -0.5 426.667 0 0 1
124.759 420.549 0 113.167 426.667 0 0 1
246.046 426.139 0 226.833 426.667 0 0 1
363.493 431.551 0 340.5 426.667 0 0 1
477.279 436.795 0 454.167 426.667 0 0 1
587.572 441.878 0 567.833 426.667 0 0 1
694.531 446.807 0 681.5 426.667 0 0 1
798.305 451.59 0 795.167 426.667 0 0 1
899.034 456.232 0 908.833 426.667 0 0 1
996.851 460.739 0 1022.5 426.667 0 0 1
-0.564304 501.226 0 -0.5 512 0 0 1
125.618 505.617 0 113.167 512 0 0 1
247.713 509.867 0 226.833 512 0 0 1
365.916 513.981 0 340.5 512 0 0 1
480.411 517.966 0 454.167 512 0 0 1
591.368 521.828 0 567.833 512 0 0 1
698.951 525.573 0 681.5 512 0 0 1
803.309 529.205 0 795.167 512 0 0 1
904.586 532.73 0 908.833 512 0 0 1
1002.92 536.152 0 1022.5 512 0 0 1
-0.568283 588.896 0 -0.5 597.333 0 0 1
126.489 591.865 0 113.167 597.333 0 0 1
249.403 594.737 0 226.833 597.333 0 0 1
368.373 597.517 0 340.5 597.333 0 0 1
483.585 600.21 0 454.167 597.333 0 0 1
595.215 602.818 0 567.833 597.333 0 0 1
703.427 605.347 0 681.5 597.333 0 0 1
808.376 607.799 0 795.167 597.333 0 0 1
910.207 610.179 0 908.833 597.333 0 0 1
1009.06 612.488 0 1022.5 597.333 0 0 1
-0.572319 677.812 0 -0.5 682.667 0 0 1
127.373 679.318 0 113.167 682.667 0 0 1
251.116 680.774 0 226.833 682.667 0 0 1
370.862 682.183 0 340.5 682.667 0 0 1
486.801 683.547 0 454.167 682.667 0 0 1
599.111 684.868 0 567.833 682.667 0 0 1
707.961 686.149 0 681.5 682.667 0 0 1
813.507 687.391 0 795.167 682.667 0 0 1
915.898 688.596 0 908.833 682.667 0 0 1
1015.27 689.765 0 1022.5 682.667 0 0 1
-0.576412 768 0 -0.5 768 0 0 1
128.268 768 0 113.167 768 0 0 1
252.853 768 0 226.833 768 0 0 1
373.385 768 0 340.5 768 0 0 1
490.06 768 0 454.167 768 0 0 1
603.059 768 0 567.833 768 0 0 1
712.553 768 0 681.5 768 0 0 1
818.704 768 0 795.167 768 0 0 1
921.661 768 0 908.833 768 0 0 1
1021.57 768 0 1022.5 768 0 0 1
3 0 1 10
3 1 11 10
3 1 2 11
3 2 12 11
3 2 3 12
3 3 13 12
3 3 4 13
3 4 14 13
3 4 5 14
3 5 15 14
3 5 6 15
3 6 16 15
3 6 7 16
3 7 17 16
3 7 8 17
3 8 18 17
3 8 9 18
3 9 19 18
3 10 11 20
3 11 21 20
3 11 12 21
3 12 22 21
3 12 13 22
3 13 23 22
3 13 14 23
3 14 24 23
3 14 15 24
3 15 25 24
3 15 16 25
3 16 26 25
3 16 17 26
3 17 27 26
3 17 18 27
3 18 28 27
3 18 19 28
3 19 29 28
3 20 21 30
3 21 31 30
3 21 22 31
3 22 32 31
3 22 23 32
3 23 33 32
3 23 24 33
3 24 34 33
3 24 25 34
3 25 35 34
3 25 26 35
3 26 36 35
3 26 27 36
3 27 37 36
3 27 28 37
3 28 38 37
3 28 29 38
3 29 39 38
3 30 31 40
3 31 41 40
3 31 32 41
3 32 42 41
3 32 33 42
3 33 43 42
3 33 34 43
3 34 44 43
3 34 35 44
3 35 45 44
3 35 36 45
3 36 46 45
3 36 37 46
3 37 47 46
3 37 38 47
3 38 48 47
3 38 39 48
3 39 49 48
3 40 41 50
3 41 51 50
3 41 42 51
3 42 52 51
3 42 43 52
3 43 53 52
3 43 44 53
3 44 54 53
3 44 45 54
3 45 55 54
3 45 46 55
3 46 56 55
3 46 47 56
3 47 57 56
3 47 48 57
3 48 58 57
3 48 49 58
3 49 59 58
3 50 51 60
3 51 61 60
3 51 52 61
3 52 62 61
3 52 53 62
3 53 63 62
3 53 54 63
3 54 64 63
3 54 55 64
3 55 65 64
3 55 56 65
3 56 66 65
3 56 57 66
3 57 67 66
3 57 58 67
3 58 68 67
3 58 59 68
3 59 69 68
3 60 61 70
3 61 71 70
3 61 62 71
3 62 72 71
3 62 63 72
3 63 73 72
3 63 64 73
3 64 74 73
3 64 65 74
3 65 75 74
3 65 66 75
3 66 76 75
3 66 67 76
3 67 77 76
3 67 68 77
3 68 78 77
3 68 69 78
3 69 79 78
3 70 71 80
3 71 81 80
3 71 72 81
3 72 82 81
3 72 73 82
3 73 83 82
3 73 74 83
3 74 84 83
3 74 75 84
3 75 85 84
3 75 76 85
3 76 86 85
3 76 77 86
3 77 87 86
3 77 78 87
3 78 88 87
3 78 79 88
3 79 89 88
3 80 81 90
3 81 91 90
3 81 82 91
3 82 92 91
3 82 83 92
3 83 93 92
3 83 84 93
3 84 94 93
3 84 85 94
3 85 95 94
3 85 86 95
3 86 96 95
3 86 87 96
3 87 97 96
3 87 88 97
3 88 98 97
3 88 89 98
3 89 99 98
