ply
format ascii 1.0
element vertex 100
property float x
property float y
property float z
property float u
property float v
property float nx
property float ny
property float nz
element face 162
property list uchar int vertex_indices
end_header
-0.497666 -0.00798661 0 -0.5 0 0 0 1
112.373 1.80337 0 113.167 0 0 0 1
224.712 3.60621 0 226.833 0 0 0 1
336.524 5.40058 0 340.5 0 0 0 1
447.812 7.18654 0 454.167 0 0 0 1
558.58 8.96416 0 567.833 0 0 0 1
668.831 10.7335 0 681.5 0 0 0 1
778.57 12.4946 0 795.167 0 0 0 1
887.799 14.2475 0 908.833 0 0 0 1
996.523 15.9923 0 1022.5 0 0 0 1
-0.499051 83.426 0 -0.5 85.3333 0 0 1
112.685 85.045 0 113.167 85.3333 0 0 1
225.334 86.6565 0 226.833 85.3333 0 0 1
337.454 88.2603 0 340.5 85.3333 0 0 1
449.046 89.8566 0 454.167 85.3333 0 0 1
560.116 91.4454 0 567.833 85.3333 0 0 1
670.667 93.0268 0 681.5 85.3333 0 0 1
780.702 94.6008 0 795.167 85.3333 0 0 1
890.225 96.1675 0 908.833 85.3333 0 0 1
999.239 97.7269 0 1022.5 85.3333 0 0 1
-0.500444 167.326 0 -0.5 170.667 0 0 1
112.999 168.75 0 113.167 170.667 0 0 1
225.96 170.168 0 226.833 170.667 0 0 1
338.389 171.579 0 340.5 170.667 0 0 1
450.288 172.984 0 454.167 170.667 0 0 1
561.661 174.382 0 567.833 170.667 0 0 1
672.513 175.773 0 681.5 170.667 0 0 1
782.845 177.158 0 795.167 170.667 0 0 1
892.663 178.536 0 908.833 170.667 0 0 1
1001.97 179.908 0 1022.5 170.667 0 0 1
-0.501845 251.695 0 -0.5 256 0 0 1
113.314 252.923 0 113.167 256 0 0 1
226.59 254.145 0 226.833 256 0 0 1
339.329 255.361 0 340.5 256 0 0 1
451.537 256.572 0 454.167 256 0 0 1
563.215 257.777 0 567.833 256 0 0 1
674.368 258.976 0 681.5 256 0 0 1
785.001 260.17 0 795.167 256 0 0 1
895.115 261.358 0 908.833 256 0 0 1
1004.72 262.54 0 1022.5 256 0 0 1
-0.503253 336.538 0 -0.5 341.333 0 0 1
113.631 337.567 0 113.167 341.333 0 0 1
227.223 338.591 0 226.833 341.333 0 0 1
340.275 339.611 0 340.5 341.333 0 0 1
452.792 340.625 0 454.167 341.333 0 0 1
564.777 341.635 0 567.833 341.333 0 0 1
676.235 342.639 0 681.5 341.333 0 0 1
787.168 343.64 0 795.167 341.333 0 0 1
897.581 344.635 0 908.833 341.333 0 0 1
1007.48 345.626 0 1022.5 341.333 0 0 1
-0.50467 421.859 0 -0.5 426.667 0 0 1
113.95 422.687 0 113.167 426.667 0 0 1
227.859 423.511 0 226.833 426.667 0 0 1
341.226 424.331 0 340.5 426.667 0 0 1
454.054 425.147 0 454.167 426.667 0 0 1
566.348 425.959 0 567.833 426.667 0 0 1
678.111 426.767 0 681.5 426.667 0 0 1
789.347 427.572 0 795.167 426.667 0 0 1
900.06 428.373 0 908.833 426.667 0 0 1
1010.25 429.17 0 1022.5 426.667 0 0 1
-0.506095 507.661 0 -0.5 512 0 0 1
114.271 508.286 0 113.167 512 0 0 1
228.5 508.907 0 226.833 512 0 0 1
342.182 509.526 0 340.5 512 0 0 1
455.324 510.141 0 454.167 512 0 0 1
567.928 510.754 0 567.833 512 0 0 1
679.998 511.363 0 681.5 512 0 0 1
791.538 511.97 0 795.167 512 0 0 1
902.553 512.574 0 908.833 512 0 0 1
1013.04 513.175 0 1022.5 512 0 0 1
-0.507527 593.95 0 -0.5 597.333 0 0 1
114.594 594.368 0 113.167 597.333 0 0 1
229.143 594.785 0 226.833 597.333 0 0 1
343.144 595.199 0 340.5 597.333 0 0 1
456.601 595.612 0 454.008 597.333 0 0 1
569.517 596.023 0 567.833 597.333 0 0 1
681.896 596.432 0 681.5 597.333 0 0 1
793.742 596.838 0 795.167 597.333 0 0 1
905.059 597.243 0 908.833 597.333 0 0 1
1015.85 597.646 0 1022.5 597.333 0 0 1
-0.508968 680.728 0 -0.5 682.667 0 0 1
114.919 680.938 0 113.167 682.667 0 0 1
229.791 681.148 0 226.833 682.667 0 0 1
344.111 681.356 0 340.5 682.667 0 0 1
457.884 681.564 0 454.167 682.667 0 0 1
571.114 681.77 0 567.833 682.667 0 0 1
683.804 681.976 0 681.5 682.667 0 0 1
795.958 682.18 0 795.167 682.667 0 0 1
907.58 682.384 0 908.833 682.667 0 0 1
1018.67 682.586 0 1022.5 682.667 0 0 1
-0.510417 768 0 -0.5 768 0 0 1
115.245 768 0 113.167 768 0 0 1
230.442 768 0 226.833 768 0 0 1
345.084 768 0 340.5 768 0 0 1
459.176 768 0 454.167 768 0 0 1
572.721 768 0 567.833 768 0 0 1
685.723 768 0 681.5 768 0 0 1
798.186 768 0 795.167 768 0 0 1
910.115 768 0 908.833 768 0 0 1
1021.51 768 0 1022.5 768 0 0 1
3 0 1 10
3 1 11 10
3 1 2 11
3 2 12 11
3 2 3 12
3 3 13 12
3 3 4 13
3 4 14 13
3 4 5 14
3 5 15 14
3 5 6 15
3 6 16 15
3 6 7 16
3 7 17 16
3 7 8 17
3 8 18 17
3 8 9 18
3 9 19 18
3 10 11 20
3 11 21 20
3 11 12 21
3 12 22 21
3 12 13 22
3 13 23 22
3 13 14 23
3 14 24 23
3 14 15 24
3 15 25 24
3 15 16 25
3 16 26 25
3 16 17 26
3 17 27 26
3 17 18 27
3 18 28 27
3 18 19 28
3 19 29 28
3 20 21 30
3 21 31 30
3 21 22 31
3 22 32 31
3 22 23 32
3 23 33 32
3 23 24 33
3 24 34 33
3 24 25 34
3 25 35 34
3 25 26 35
3 26 36 35
3 26 27 36
3 27 37 36
3 27 28 37
3 28 38 37
3 28 29 38
3 29 39 38
3 30 31 40
3 31 41 40
3 31 32 41
3 32 42 41
3 32 33 42
3 33 43 42
3 33 34 43
3 34 44 43
3 34 35 44
3 35 45 44
3 35 36 45
3 36 46 45
3 36 37 46
3 37 47 46
3 37 38 47
3 38 48 47
3 38 39 48
3 39 49 48
3 40 41 50
3 41 51 50
3 41 42 51
3 42 52 51
3 42 43 52
3 43 53 52
3 43 44 53
3 44 54 53
3 44 45 54
3 45 55 54
3 45 46 55
3 46 56 55
3 46 47 56
3 47 57 56
3 47 48 57
3 48 58 57
3 48 49 58
3 49 59 58
3 50 51 60
3 51 61 60
3 51 52 61
3 52 62 61
3 52 53 62
3 53 63 62
3 53 54 63
3 54 64 63
3 54 55 64
3 55 65 64
3 55 56 65
3 56 66 65
3 56 57 66
3 57 67 66
3 57 58 67
3 58 68 67
3 58 59 68
3 59 69 68
3 60 61 70
3 61 71 70
3 61 62 71
3 62 72 71
3 62 63 72
3 63 73 72
3 63 64 73
3 64 74 73
3 64 65 74
3 65 75 74
3 65 66 75
3 66 76 75
3 66 67 76
3 67 77 76
3 67 68 77
3 68 78 77
3 68 69 78
3 69 79 78
3 70 71 80
3 71 81 80
3 71 72 81
3 72 82 81
3 72 73 82
3 73 83 82
3 73 74 83
3 74 84 83
3 74 75 84
3 75 85 84
3 75 76 85
3 76 86 85
3 76 77 86
3 77 87 86
3 77 78 87
3 78 88 87
3 78 79 88
3 79 89 88
3 80 81 90
3 81 91 90
3 81 82 91
3 82 92 91
3 82 83 92
3 83 93 92
3 83 84 93
3 84 94 93
3 84 85 94
3 85 95 94
3 85 86 95
3 86 96 95
3 86 87 96
3 87 97 96
3 87 88 97
3 88 98 97
3 88 89 98
3 89 99 98
