ply
format ascii 1.0
element vertex 100
property float x
property float y
property float z
property float u
property float v
property float nx
property float ny
property float nz
element face 162
property list uchar int vertex_indices
end_header
1014.08 -3.21502 0 -0.5 0 0 0 1
1129.93 -3.18925 0 113.167 0 0 0 1
1245.78 -3.1635 0 226.833 0 0 0 1
1361.61 -3.13775 0 340.5 0 0 0 1
1477.45 -3.11199 0 454.167 0 0 0 1
1593.27 -3.08623 0 567.833 0 0 0 1
1709.07 -3.0605 0 681.5 0 0 0 1
1824.88 -3.03476 0 795.167 0 0 0 1
1940.67 -3.00901 0 908.833 0 0 0 1
2056.47 -2.98326 0 1022.5 0 0 0 1
1014.8 84.0672 0 -0.5 85.3333 0 0 1
1130.39 84.0899 0 113.167 85.3333 0 0 1
1245.97 84.1128 0 226.833 85.3333 0 0 1
1361.53 84.1355 0 340.5 85.3333 0 0 1
1477.09 84.1583 0 454.167 85.3333 0 0 1
1592.65 84.1811 0 567.833 85.3333 0 0 1
1708.19 84.2039 0 681.5 85.3333 0 0 1
1823.73 84.2267 0 795.167 85.3333 0 0 1
1939.25 84.2495 0 908.833 85.3333 0 0 1
2054.78 84.2723 0 1022.5 85.3333 0 0 1
1015.53 170.945 0 -0.5 170.667 0 0 1
1130.85 170.965 0 113.167 170.667 0 0 1
1246.15 170.985 0 226.833 170.667 0 0 1
1361.45 171.004 0 340.5 170.667 0 0 1
1476.75 171.024 0 454.167 170.667 0 0 1
1592.03 171.044 0 567.833 170.667 0 0 1
1707.3 171.064 0 681.5 170.667 0 0 1
1822.58 171.084 0 795.167 170.667 0 0 1
1937.84 171.103 0 908.833 170.667 0 0 1
2053.09 171.123 0 1022.5 170.667 0 0 1
1016.25 257.421 0 -0.5 256 0 0 1
1131.3 257.438 0 113.167 256 0 0 1
1246.34 257.456 0 226.833 256 0 0 1
1361.37 257.472 0 340.5 256 0 0 1
1476.4 257.489 0 454.167 256 0 0 1
1591.42 257.506 0 567.833 256 0 0 1
1706.43 257.523 0 681.5 256 0 0 1
1821.43 257.54 0 795.167 256 0 0 1
1936.42 257.556 0 908.833 256 0 0 1
2051.42 257.574 0 1022.5 256 0 0 1
1016.96 343.499 0 -0.5 341.333 0 0 1
1131.75 343.513 0 113.167 341.333 0 0 1
1246.53 343.527 0 226.833 341.333 0 0 1
1361.29 343.541 0 340.5 341.333 0 0 1
1476.06 343.555 0 454.167 341.333 0 0 1
1590.81 343.569 0 567.833 341.333 0 0 1
1705.56 343.583 0 681.5 341.333 0 0 1
1820.29 343.597 0 795.167 341.333 0 0 1
1935.02 343.611 0 908.833 341.333 0 0 1
2049.75 343.625 0 1022.5 341.333 0 0 1
1017.68 429.181 0 -0.5 426.667 0 0 1
1132.2 429.191 0 113.167 426.667 0 0 1
1246.71 429.202 0 226.833 426.667 0 0 1
1361.22 429.214 0 340.5 426.667 0 0 1
1475.71 429.225 0 454.167 426.667 0 0 1
1590.21 429.237 0 567.833 426.667 0 0 1
1704.68 429.247 0 681.5 426.667 0 0 1
1819.16 429.258 0 795.167 426.667 0 0 1
1933.63 429.269 0 908.833 426.667 0 0 1
2048.08 429.281 0 1022.5 426.667 0 0 1
1018.39 514.468 0 -0.5 512 0 0 1
1132.65 514.477 0 113.167 512 0 0 1
1246.9 514.485 0 226.833 512 0 0 1
1361.14 514.493 0 340.5 512 0 0 1
1475.37 514.501 0 454.167 512 0 0 1
1589.6 514.51 0 567.833 512 0 0 1
1703.82 514.518 0 681.5 512 0 0 1
1818.03 514.527 0 795.167 512 0 0 1
1932.24 514.535 0 908.833 512 0 0 1
2046.43 514.544 0 1022.5 512 0 0 1
1019.09 599.365 0 -0.5 597.333 0 0 1
1133.09 599.372 0 113.167 597.333 0 0 1
1247.08 599.377 0 226.833 597.333 0 0 1
1361.06 599.383 0 340.5 597.333 0 0 1
1475.04 599.388 0 454.167 597.333 0 0 1
1589 599.394 0 567.833 597.333 0 0 1
1702.95 599.399 0 681.5 597.333 0 0 1
1816.9 599.405 0 795.167 597.333 0 0 1
1930.84 599.41 0 908.833 597.333 0 0 1
2044.78 599.416 0 1022.5 597.333 0 0 1
1019.8 683.875 0 -0.5 682.667 0 0 1
1133.53 683.879 0 113.167 682.667 0 0 1
1247.26 683.881 0 226.833 682.667 0 0 1
1360.98 683.884 0 340.5 682.667 0 0 1
1474.69 683.886 0 454.167 682.667 0 0 1
1588.39 683.89 0 567.833 682.667 0 0 1
1702.1 683.892 0 681.5 682.667 0 0 1
1815.78 683.895 0 795.167 682.667 0 0 1
1929.47 683.898 0 908.833 682.667 0 0 1
2043.14 683.9 0 1022.5 682.667 0 0 1
1020.5 768 0 -0.5 768 0 0 1
1133.98 768 0 113.167 768 0 0 1
1247.45 768 0 226.833 768 0 0 1
1360.9 768 0 340.5 768 0 0 1
1474.35 768 0 454.167 768 0 0 1
1587.8 768 0 567.833 768 0 0 1
1701.24 768 0 681.5 768 0 0 1
1814.68 768 0 795.167 768 0 0 1
1928.1 768 0 908.833 768 0 0 1
2041.51 768 0 1022.5 768 0 0 1
3 0 1 10
3 1 11 10
3 1 2 11
3 2 12 11
3 2 3 12
3 3 13 12
3 3 4 13
3 4 14 13
3 4 5 14
3 5 15 14
3 5 6 15
3 6 16 15
3 6 7 16
3 7 17 16
3 7 8 17
3 8 18 17
3 8 9 18
3 9 19 18
3 10 11 20
3 11 21 20
3 11 12 21
3 12 22 21
3 12 13 22
3 13 23 22
3 13 14 23
3 14 24 23
3 14 15 24
3 15 25 24
3 15 16 25
3 16 26 25
3 16 17 26
3 17 27 26
3 17 18 27
3 18 28 27
3 18 19 28
3 19 29 28
3 20 21 30
3 21 31 30
3 21 22 31
3 22 32 31
3 22 23 32
3 23 33 32
3 23 24 33
3 24 34 33
3 24 25 34
3 25 35 34
3 25 26 35
3 26 36 35
3 26 27 36
3 27 37 36
3 27 28 37
3 28 38 37
3 28 29 38
3 29 39 38
3 30 31 40
3 31 41 40
3 31 32 41
3 32 42 41
3 32 33 42
3 33 43 42
3 33 34 43
3 34 44 43
3 34 35 44
3 35 45 44
3 35 36 45
3 36 46 45
3 36 37 46
3 37 47 46
3 37 38 47
3 38 48 47
3 38 39 48
3 39 49 48
3 40 41 50
3 41 51 50
3 41 42 51
3 42 52 51
3 42 43 52
3 43 53 52
3 43 44 53
3 44 54 53
3 44 45 54
3 45 55 54
3 45 46 55
3 46 56 55
3 46 47 56
3 47 57 56
3 47 48 57
3 48 58 57
3 48 49 58
3 49 59 58
3 50 51 60
3 51 61 60
3 51 52 61
3 52 62 61
3 52 53 62
3 53 63 62
3 53 54 63
3 54 64 63
3 54 55 64
3 55 65 64
3 55 56 65
3 56 66 65
3 56 57 66
3 57 67 66
3 57 58 67
3 58 68 67
3 58 59 68
3 59 69 68
3 60 61 70
3 61 71 70
3 61 62 71
3 62 72 71
3 62 63 72
3 63 73 72
3 63 64 73
3 64 74 73
3 64 65 74
3 65 75 74
3 65 66 75
3 66 76 75
3 66 67 76
3 67 77 76
3 67 68 77
3 68 78 77
3 68 69 78
3 69 79 78
3 70 71 80
3 71 81 80
3 71 72 81
3 72 82 81
3 72 73 82
3 73 83 82
3 73 74 83
3 74 84 83
3 74 75 84
3 75 85 84
3 75 76 85
3 76 86 85
3 76 77 86
3 77 87 86
3 77 78 87
3 78 88 87
3 78 79 88
3 79 89 88
3 80 81 90
3 81 91 90
3 81 82 91
3 82 92 91
3 82 83 92
3 83 93 92
3 83 84 93
3 84 94 93
3 84 85 94
3 85 95 94
3 85 86 95
3 86 96 95
3 86 87 96
3 87 97 96
3 87 88 97
3 88 98 97
3 88 89 98
3 89 99 98
